<?xml version="1.0" encoding="UTF-8" standalone="no"?>
<!-- Created with enve https://maurycyliebner.github.io -->

<svg xmlns="http://www.w3.org/2000/svg" viewBox="0 0 1080 1080" width="1080" xmlns:xlink="http://www.w3.org/1999/xlink" height="1080">
 <rect fill="#101015" width="1080" height="1080"/>
 <g transform="translate(0 0)">
  <g>
   <animateTransform attributeName="transform" calcMode="spline" repeatCount="indefinite" type="translate" keyTimes="0;0;0.0984848;0.136364;0.143939;0.242424;0.280303;0.287879;0.386364;0.424242;0.431818;0.530303;0.568182;0.575758;0.674242;0.712121;0.719697;0.818182;0.856061;1" values="77.1722 -486.407;77.1722 -486.407;77.1722 1541.27;77.1722 1541.27;77.1722 -486.407;77.1722 1541.27;77.1722 1541.27;77.1722 -486.407;77.1722 1541.27;77.1722 1541.27;77.1722 -486.407;77.1722 1541.27;77.1722 1541.27;77.1722 -486.407;77.1722 1541.27;77.1722 1541.27;77.1722 -486.407;77.1722 1541.27;77.1722 1541.27;77.1722 1541.27" dur="5.5s" keySplines="0 0 1 1;0 0 1 1;0 0.333333 1 0.666667;0 0 1 1;0 0 1 1;0 0.333333 1 0.666667;0 0 1 1;0 0 1 1;0 0.333333 1 0.666667;0 0 1 1;0 0 1 1;0 0.333333 1 0.666667;0 0 1 1;0 0 1 1;0 0.333333 1 0.666667;0 0 1 1;0 0 1 1;0 0.333333 1 0.666667;0 0 1 1"/>
   <g transform="rotate(0)">
    <g transform="scale(1 1)">
     <g transform="skewX(0) skewY(0)">
      <g opacity="1" transform="translate(0 0)">
       <path fill="none" d="M0 0C0 0 2.13855 213.855 2.13855 213.855" stroke-width="25.5" stroke="#ffffff"/>
      </g>
     </g>
    </g>
   </g>
  </g>
 </g>
 <g transform="translate(0 0)">
  <g>
   <animateTransform attributeName="transform" calcMode="spline" repeatCount="indefinite" type="translate" keyTimes="0;0;0.0984848;0.136364;0.143939;0.242424;0.280303;0.287879;0.386364;0.424242;0.431818;0.530303;0.568182;0.575758;0.674242;0.712121;0.719697;0.818182;0.856061;1" values="294.471 -265.486;294.471 -265.486;294.471 1762.19;294.471 1762.19;294.471 -265.486;294.471 1762.19;294.471 1762.19;294.471 -265.486;294.471 1762.19;294.471 1762.19;294.471 -265.486;294.471 1762.19;294.471 1762.19;294.471 -265.486;294.471 1762.19;294.471 1762.19;294.471 -265.486;294.471 1762.19;294.471 1762.19;294.471 1762.19" dur="5.5s" keySplines="0 0 1 1;0 0 1 1;0 0.333333 1 0.666667;0 0 1 1;0 0 1 1;0 0.333333 1 0.666667;0 0 1 1;0 0 1 1;0 0.333333 1 0.666667;0 0 1 1;0 0 1 1;0 0.333333 1 0.666667;0 0 1 1;0 0 1 1;0 0.333333 1 0.666667;0 0 1 1;0 0 1 1;0 0.333333 1 0.666667;0 0 1 1"/>
   <g transform="rotate(0)">
    <g transform="scale(1 1)">
     <g transform="skewX(0) skewY(0)">
      <g opacity="1" transform="translate(0 0)">
       <path fill="none" d="M0 0C0 0 2.13855 213.855 2.13855 213.855" stroke-width="25.5" stroke="#ffffff"/>
      </g>
     </g>
    </g>
   </g>
  </g>
 </g>
 <g transform="translate(0 0)">
  <g>
   <animateTransform attributeName="transform" calcMode="spline" repeatCount="indefinite" type="translate" keyTimes="0;0;0.0984848;0.136364;0.143939;0.242424;0.280303;0.287879;0.386364;0.424242;0.431818;0.530303;0.568182;0.575758;0.674242;0.712121;0.719697;0.818182;0.856061;1" values="997.072 -863.059;997.072 -863.059;997.072 1164.62;997.072 1164.62;997.072 -863.059;997.072 1164.62;997.072 1164.62;997.072 -863.059;997.072 1164.62;997.072 1164.62;997.072 -863.059;997.072 1164.62;997.072 1164.62;997.072 -863.059;997.072 1164.62;997.072 1164.62;997.072 -863.059;997.072 1164.62;997.072 1164.62;997.072 1164.62" dur="5.5s" keySplines="0 0 1 1;0 0 1 1;0 0.333333 1 0.666667;0 0 1 1;0 0 1 1;0 0.333333 1 0.666667;0 0 1 1;0 0 1 1;0 0.333333 1 0.666667;0 0 1 1;0 0 1 1;0 0.333333 1 0.666667;0 0 1 1;0 0 1 1;0 0.333333 1 0.666667;0 0 1 1;0 0 1 1;0 0.333333 1 0.666667;0 0 1 1"/>
   <g transform="rotate(0)">
    <g transform="scale(1 1)">
     <g transform="skewX(0) skewY(0)">
      <g opacity="1" transform="translate(0 0)">
       <path fill="none" d="M0 0C0 0 2.13855 213.855 2.13855 213.855" stroke-width="25.5" stroke="#ffffff"/>
      </g>
     </g>
    </g>
   </g>
  </g>
 </g>
 <g transform="translate(0 0)">
  <g>
   <animateTransform attributeName="transform" calcMode="spline" repeatCount="indefinite" type="translate" keyTimes="0;0;0.0984848;0.136364;0.143939;0.242424;0.280303;0.287879;0.386364;0.424242;0.431818;0.530303;0.568182;0.575758;0.674242;0.712121;0.719697;0.818182;0.856061;1" values="826.854 -537.11;826.854 -537.11;826.854 1490.57;826.854 1490.57;826.854 -537.11;826.854 1490.57;826.854 1490.57;826.854 -537.11;826.854 1490.57;826.854 1490.57;826.854 -537.11;826.854 1490.57;826.854 1490.57;826.854 -537.11;826.854 1490.57;826.854 1490.57;826.854 -537.11;826.854 1490.57;826.854 1490.57;826.854 1490.57" dur="5.5s" keySplines="0 0 1 1;0 0 1 1;0 0.333333 1 0.666667;0 0 1 1;0 0 1 1;0 0.333333 1 0.666667;0 0 1 1;0 0 1 1;0 0.333333 1 0.666667;0 0 1 1;0 0 1 1;0 0.333333 1 0.666667;0 0 1 1;0 0 1 1;0 0.333333 1 0.666667;0 0 1 1;0 0 1 1;0 0.333333 1 0.666667;0 0 1 1"/>
   <g transform="rotate(0)">
    <g transform="scale(1 1)">
     <g transform="skewX(0) skewY(0)">
      <g opacity="1" transform="translate(0 0)">
       <path fill="none" d="M0 0C0 0 2.13855 213.855 2.13855 213.855" stroke-width="25.5" stroke="#ffffff"/>
      </g>
     </g>
    </g>
   </g>
  </g>
 </g>
 <g transform="translate(0 0)">
  <g>
   <animateTransform attributeName="transform" calcMode="spline" repeatCount="indefinite" type="translate" keyTimes="0;0;0.0984848;0.136364;0.143939;0.242424;0.280303;0.287879;0.386364;0.424242;0.431818;0.530303;0.568182;0.575758;0.674242;0.712121;0.719697;0.818182;0.856061;1" values="200.308 -855.815;200.308 -855.815;200.308 1171.86;200.308 1171.86;200.308 -855.815;200.308 1171.86;200.308 1171.86;200.308 -855.815;200.308 1171.86;200.308 1171.86;200.308 -855.815;200.308 1171.86;200.308 1171.86;200.308 -855.815;200.308 1171.86;200.308 1171.86;200.308 -855.815;200.308 1171.86;200.308 1171.86;200.308 1171.86" dur="5.5s" keySplines="0 0 1 1;0 0 1 1;0 0.333333 1 0.666667;0 0 1 1;0 0 1 1;0 0.333333 1 0.666667;0 0 1 1;0 0 1 1;0 0.333333 1 0.666667;0 0 1 1;0 0 1 1;0 0.333333 1 0.666667;0 0 1 1;0 0 1 1;0 0.333333 1 0.666667;0 0 1 1;0 0 1 1;0 0.333333 1 0.666667;0 0 1 1"/>
   <g transform="rotate(0)">
    <g transform="scale(1 1)">
     <g transform="skewX(0) skewY(0)">
      <g opacity="1" transform="translate(0 0)">
       <path fill="none" d="M0 0C0 0 2.13855 213.855 2.13855 213.855" stroke-width="25.5" stroke="#ffffff"/>
      </g>
     </g>
    </g>
   </g>
  </g>
 </g>
 <g transform="translate(0 0)">
  <g>
   <animateTransform attributeName="transform" calcMode="spline" repeatCount="indefinite" type="translate" keyTimes="0;0;0.0925044;0.113636;1" values="534.779 1586.65;534.779 1586.65;534.779 653.23;534.779 671.048;534.779 671.048" dur="5.5s" keySplines="0 0 1 1;0.0430269 0.876226 0.656693 1;0.591748 0 1 1;0 0 1 1"/>
   <g transform="rotate(0)">
    <g>
     <animateTransform attributeName="transform" calcMode="spline" repeatCount="indefinite" type="scale" keyTimes="0;0.795455;0.909091;1" values="1 1;1 1;0 1;0 1" dur="5.5s" keySplines="0 0 1 1;0 0 0.0976344 0.934303;0 0 1 1"/>
     <g transform="skewX(0) skewY(0)">
      <g opacity="1" transform="translate(0 0)">
       <path fill="#ffffff" stroke-width="1" stroke="none">
        <animate attributeName="d" calcMode="spline" repeatCount="indefinite" keyTimes="0;0;0.0227273;0.0454545;0.0681818;0.0909091;0.113636;0.136364;0.159091;0.181818;0.204545;0.227273;0.25;0.272727;0.295455;0.318182;0.340909;0.363636;0.386364;0.416667;0.439394;0.462121;0.484848;0.507576;0.530303;0.560606;0.583333;0.606061;0.628788;0.651515;0.674242;0.704545;0.727273;0.75;0.772727;0.795455;0.818182;1" values="M0 0C0 0 47.2992 49.9443 48.1754 109.966C49.2227 181.705 96.3508 219.931 96.3508 219.931C96.3508 219.931 156.046 260.252 144.526 329.897C134.73 389.12 192.702 439.863 192.702 439.863C192.702 439.863 2.09458 437.768 2.09458 437.768C2.09458 437.768 -188.513 435.673 -188.513 435.673C-188.513 435.673 -138.04 385.999 -141.384 326.755C-145.05 261.823 -94.2563 217.837 -94.2563 217.837C-94.2563 217.837 -47.6518 180.134 -47.1281 108.918C-46.6918 49.5814 0 0 0 0Z;M0 0C0 0 47.2992 49.9443 48.1754 109.966C49.2227 181.705 96.3508 219.931 96.3508 219.931C96.3508 219.931 156.046 260.252 144.526 329.897C134.73 389.12 192.702 439.863 192.702 439.863C192.702 439.863 2.09458 437.768 2.09458 437.768C2.09458 437.768 -188.513 435.673 -188.513 435.673C-188.513 435.673 -138.04 385.999 -141.384 326.755C-145.05 261.823 -94.2563 217.837 -94.2563 217.837C-94.2563 217.837 -47.6518 180.134 -47.1281 108.918C-46.6918 49.5814 0 0 0 0Z;M0 0C0 0 5.24807 68.0065 48.1754 109.966C108.983 169.402 96.3508 219.931 96.3508 219.931C96.3508 219.931 96.2864 288.374 144.526 329.897C190.022 369.057 192.702 439.863 192.702 439.863C192.702 439.863 2.09458 437.768 2.09458 437.768C2.09458 437.768 -188.513 435.673 -188.513 435.673C-188.513 435.673 -191.602 358.367 -141.384 326.755C-94.078 296.976 -94.2563 217.837 -94.2563 217.837C-94.2563 217.837 -91.593 159.042 -47.1281 108.918C-7.75017 64.5287 0 0 0 0Z;M0 0C0 0 47.2992 49.9443 48.1754 109.966C49.2227 181.705 96.3508 219.931 96.3508 219.931C96.3508 219.931 156.046 260.252 144.526 329.897C134.73 389.12 192.702 439.863 192.702 439.863C192.702 439.863 2.09458 437.768 2.09458 437.768C2.09458 437.768 -188.513 435.673 -188.513 435.673C-188.513 435.673 -138.04 385.999 -141.384 326.755C-145.05 261.823 -94.2563 217.837 -94.2563 217.837C-94.2563 217.837 -47.6518 180.134 -47.1281 108.918C-46.6918 49.5814 0 0 0 0Z;M0 0C0 0 5.24807 68.0065 48.1754 109.966C108.983 169.402 96.3508 219.931 96.3508 219.931C96.3508 219.931 96.2864 288.374 144.526 329.897C190.022 369.057 192.702 439.863 192.702 439.863C192.702 439.863 2.09458 437.768 2.09458 437.768C2.09458 437.768 -188.513 435.673 -188.513 435.673C-188.513 435.673 -191.602 358.367 -141.384 326.755C-94.078 296.976 -94.2563 217.837 -94.2563 217.837C-94.2563 217.837 -91.593 159.042 -47.1281 108.918C-7.75017 64.5287 0 0 0 0Z;M0 0C0 0 47.2992 49.9443 48.1754 109.966C49.2227 181.705 96.3508 219.931 96.3508 219.931C96.3508 219.931 156.046 260.252 144.526 329.897C134.73 389.12 192.702 439.863 192.702 439.863C192.702 439.863 2.09458 437.768 2.09458 437.768C2.09458 437.768 -188.513 435.673 -188.513 435.673C-188.513 435.673 -138.04 385.999 -141.384 326.755C-145.05 261.823 -94.2563 217.837 -94.2563 217.837C-94.2563 217.837 -47.6518 180.134 -47.1281 108.918C-46.6918 49.5814 0 0 0 0Z;M0 0C0 0 5.24807 68.0065 48.1754 109.966C108.983 169.402 96.3508 219.931 96.3508 219.931C96.3508 219.931 96.2864 288.374 144.526 329.897C190.022 369.057 192.702 439.863 192.702 439.863C192.702 439.863 2.09458 437.768 2.09458 437.768C2.09458 437.768 -188.513 435.673 -188.513 435.673C-188.513 435.673 -191.602 358.367 -141.384 326.755C-94.078 296.976 -94.2563 217.837 -94.2563 217.837C-94.2563 217.837 -91.593 159.042 -47.1281 108.918C-7.75017 64.5287 0 0 0 0Z;M0 0C0 0 47.2992 49.9443 48.1754 109.966C49.2227 181.705 96.3508 219.931 96.3508 219.931C96.3508 219.931 156.046 260.252 144.526 329.897C134.73 389.12 192.702 439.863 192.702 439.863C192.702 439.863 2.09458 437.768 2.09458 437.768C2.09458 437.768 -188.513 435.673 -188.513 435.673C-188.513 435.673 -138.04 385.999 -141.384 326.755C-145.05 261.823 -94.2563 217.837 -94.2563 217.837C-94.2563 217.837 -47.6518 180.134 -47.1281 108.918C-46.6918 49.5814 0 0 0 0Z;M0 0C0 0 5.24807 68.0065 48.1754 109.966C108.983 169.402 96.3508 219.931 96.3508 219.931C96.3508 219.931 96.2864 288.374 144.526 329.897C190.022 369.057 192.702 439.863 192.702 439.863C192.702 439.863 2.09458 437.768 2.09458 437.768C2.09458 437.768 -188.513 435.673 -188.513 435.673C-188.513 435.673 -191.602 358.367 -141.384 326.755C-94.078 296.976 -94.2563 217.837 -94.2563 217.837C-94.2563 217.837 -91.593 159.042 -47.1281 108.918C-7.75017 64.5287 0 0 0 0Z;M0 0C0 0 47.2992 49.9443 48.1754 109.966C49.2227 181.705 96.3508 219.931 96.3508 219.931C96.3508 219.931 156.046 260.252 144.526 329.897C134.73 389.12 192.702 439.863 192.702 439.863C192.702 439.863 2.09458 437.768 2.09458 437.768C2.09458 437.768 -188.513 435.673 -188.513 435.673C-188.513 435.673 -138.04 385.999 -141.384 326.755C-145.05 261.823 -94.2563 217.837 -94.2563 217.837C-94.2563 217.837 -47.6518 180.134 -47.1281 108.918C-46.6918 49.5814 0 0 0 0Z;M0 0C0 0 5.24807 68.0065 48.1754 109.966C108.983 169.402 96.3508 219.931 96.3508 219.931C96.3508 219.931 96.2864 288.374 144.526 329.897C190.022 369.057 192.702 439.863 192.702 439.863C192.702 439.863 2.09458 437.768 2.09458 437.768C2.09458 437.768 -188.513 435.673 -188.513 435.673C-188.513 435.673 -191.602 358.367 -141.384 326.755C-94.078 296.976 -94.2563 217.837 -94.2563 217.837C-94.2563 217.837 -91.593 159.042 -47.1281 108.918C-7.75017 64.5287 0 0 0 0Z;M0 0C0 0 47.2992 49.9443 48.1754 109.966C49.2227 181.705 96.3508 219.931 96.3508 219.931C96.3508 219.931 156.046 260.252 144.526 329.897C134.73 389.12 192.702 439.863 192.702 439.863C192.702 439.863 2.09458 437.768 2.09458 437.768C2.09458 437.768 -188.513 435.673 -188.513 435.673C-188.513 435.673 -138.04 385.999 -141.384 326.755C-145.05 261.823 -94.2563 217.837 -94.2563 217.837C-94.2563 217.837 -47.6518 180.134 -47.1281 108.918C-46.6918 49.5814 0 0 0 0Z;M0 0C0 0 5.24807 68.0065 48.1754 109.966C108.983 169.402 96.3508 219.931 96.3508 219.931C96.3508 219.931 96.2864 288.374 144.526 329.897C190.022 369.057 192.702 439.863 192.702 439.863C192.702 439.863 2.09458 437.768 2.09458 437.768C2.09458 437.768 -188.513 435.673 -188.513 435.673C-188.513 435.673 -191.602 358.367 -141.384 326.755C-94.078 296.976 -94.2563 217.837 -94.2563 217.837C-94.2563 217.837 -91.593 159.042 -47.1281 108.918C-7.75017 64.5287 0 0 0 0Z;M0 0C0 0 47.2992 49.9443 48.1754 109.966C49.2227 181.705 96.3508 219.931 96.3508 219.931C96.3508 219.931 156.046 260.252 144.526 329.897C134.73 389.12 192.702 439.863 192.702 439.863C192.702 439.863 2.09458 437.768 2.09458 437.768C2.09458 437.768 -188.513 435.673 -188.513 435.673C-188.513 435.673 -138.04 385.999 -141.384 326.755C-145.05 261.823 -94.2563 217.837 -94.2563 217.837C-94.2563 217.837 -47.6518 180.134 -47.1281 108.918C-46.6918 49.5814 0 0 0 0Z;M0 0C0 0 5.24807 68.0065 48.1754 109.966C108.983 169.402 96.3508 219.931 96.3508 219.931C96.3508 219.931 96.2864 288.374 144.526 329.897C190.022 369.057 192.702 439.863 192.702 439.863C192.702 439.863 2.09458 437.768 2.09458 437.768C2.09458 437.768 -188.513 435.673 -188.513 435.673C-188.513 435.673 -191.602 358.367 -141.384 326.755C-94.078 296.976 -94.2563 217.837 -94.2563 217.837C-94.2563 217.837 -91.593 159.042 -47.1281 108.918C-7.75017 64.5287 0 0 0 0Z;M0 0C0 0 47.2992 49.9443 48.1754 109.966C49.2227 181.705 96.3508 219.931 96.3508 219.931C96.3508 219.931 156.046 260.252 144.526 329.897C134.73 389.12 192.702 439.863 192.702 439.863C192.702 439.863 2.09458 437.768 2.09458 437.768C2.09458 437.768 -188.513 435.673 -188.513 435.673C-188.513 435.673 -138.04 385.999 -141.384 326.755C-145.05 261.823 -94.2563 217.837 -94.2563 217.837C-94.2563 217.837 -47.6518 180.134 -47.1281 108.918C-46.6918 49.5814 0 0 0 0Z;M0 0C0 0 5.24807 68.0065 48.1754 109.966C108.983 169.402 96.3508 219.931 96.3508 219.931C96.3508 219.931 96.2864 288.374 144.526 329.897C190.022 369.057 192.702 439.863 192.702 439.863C192.702 439.863 2.09458 437.768 2.09458 437.768C2.09458 437.768 -188.513 435.673 -188.513 435.673C-188.513 435.673 -191.602 358.367 -141.384 326.755C-94.078 296.976 -94.2563 217.837 -94.2563 217.837C-94.2563 217.837 -91.593 159.042 -47.1281 108.918C-7.75017 64.5287 0 0 0 0Z;M0 0C0 0 47.2992 49.9443 48.1754 109.966C49.2227 181.705 96.3508 219.931 96.3508 219.931C96.3508 219.931 156.046 260.252 144.526 329.897C134.73 389.12 192.702 439.863 192.702 439.863C192.702 439.863 2.09458 437.768 2.09458 437.768C2.09458 437.768 -188.513 435.673 -188.513 435.673C-188.513 435.673 -138.04 385.999 -141.384 326.755C-145.05 261.823 -94.2563 217.837 -94.2563 217.837C-94.2563 217.837 -47.6518 180.134 -47.1281 108.918C-46.6918 49.5814 0 0 0 0Z;M0 0C0 0 5.24807 68.0065 48.1754 109.966C108.983 169.402 96.3508 219.931 96.3508 219.931C96.3508 219.931 96.2864 288.374 144.526 329.897C190.022 369.057 192.702 439.863 192.702 439.863C192.702 439.863 2.09458 437.768 2.09458 437.768C2.09458 437.768 -188.513 435.673 -188.513 435.673C-188.513 435.673 -191.602 358.367 -141.384 326.755C-94.078 296.976 -94.2563 217.837 -94.2563 217.837C-94.2563 217.837 -91.593 159.042 -47.1281 108.918C-7.75017 64.5287 0 0 0 0Z;M0 0C0 0 47.2992 49.9443 48.1754 109.966C49.2227 181.705 96.3508 219.931 96.3508 219.931C96.3508 219.931 156.046 260.252 144.526 329.897C134.73 389.12 192.702 439.863 192.702 439.863C192.702 439.863 2.09458 437.768 2.09458 437.768C2.09458 437.768 -188.513 435.673 -188.513 435.673C-188.513 435.673 -138.04 385.999 -141.384 326.755C-145.05 261.823 -94.2563 217.837 -94.2563 217.837C-94.2563 217.837 -47.6518 180.134 -47.1281 108.918C-46.6918 49.5814 0 0 0 0Z;M0 0C0 0 5.24807 68.0065 48.1754 109.966C108.983 169.402 96.3508 219.931 96.3508 219.931C96.3508 219.931 96.2864 288.374 144.526 329.897C190.022 369.057 192.702 439.863 192.702 439.863C192.702 439.863 2.09458 437.768 2.09458 437.768C2.09458 437.768 -188.513 435.673 -188.513 435.673C-188.513 435.673 -191.602 358.367 -141.384 326.755C-94.078 296.976 -94.2563 217.837 -94.2563 217.837C-94.2563 217.837 -91.593 159.042 -47.1281 108.918C-7.75017 64.5287 0 0 0 0Z;M0 0C0 0 47.2992 49.9443 48.1754 109.966C49.2227 181.705 96.3508 219.931 96.3508 219.931C96.3508 219.931 156.046 260.252 144.526 329.897C134.73 389.12 192.702 439.863 192.702 439.863C192.702 439.863 2.09458 437.768 2.09458 437.768C2.09458 437.768 -188.513 435.673 -188.513 435.673C-188.513 435.673 -138.04 385.999 -141.384 326.755C-145.05 261.823 -94.2563 217.837 -94.2563 217.837C-94.2563 217.837 -47.6518 180.134 -47.1281 108.918C-46.6918 49.5814 0 0 0 0Z;M0 0C0 0 5.24807 68.0065 48.1754 109.966C108.983 169.402 96.3508 219.931 96.3508 219.931C96.3508 219.931 96.2864 288.374 144.526 329.897C190.022 369.057 192.702 439.863 192.702 439.863C192.702 439.863 2.09458 437.768 2.09458 437.768C2.09458 437.768 -188.513 435.673 -188.513 435.673C-188.513 435.673 -191.602 358.367 -141.384 326.755C-94.078 296.976 -94.2563 217.837 -94.2563 217.837C-94.2563 217.837 -91.593 159.042 -47.1281 108.918C-7.75017 64.5287 0 0 0 0Z;M0 0C0 0 47.2992 49.9443 48.1754 109.966C49.2227 181.705 96.3508 219.931 96.3508 219.931C96.3508 219.931 156.046 260.252 144.526 329.897C134.73 389.12 192.702 439.863 192.702 439.863C192.702 439.863 2.09458 437.768 2.09458 437.768C2.09458 437.768 -188.513 435.673 -188.513 435.673C-188.513 435.673 -138.04 385.999 -141.384 326.755C-145.05 261.823 -94.2563 217.837 -94.2563 217.837C-94.2563 217.837 -47.6518 180.134 -47.1281 108.918C-46.6918 49.5814 0 0 0 0Z;M0 0C0 0 5.24807 68.0065 48.1754 109.966C108.983 169.402 96.3508 219.931 96.3508 219.931C96.3508 219.931 96.2864 288.374 144.526 329.897C190.022 369.057 192.702 439.863 192.702 439.863C192.702 439.863 2.09458 437.768 2.09458 437.768C2.09458 437.768 -188.513 435.673 -188.513 435.673C-188.513 435.673 -191.602 358.367 -141.384 326.755C-94.078 296.976 -94.2563 217.837 -94.2563 217.837C-94.2563 217.837 -91.593 159.042 -47.1281 108.918C-7.75017 64.5287 0 0 0 0Z;M0 0C0 0 47.2992 49.9443 48.1754 109.966C49.2227 181.705 96.3508 219.931 96.3508 219.931C96.3508 219.931 156.046 260.252 144.526 329.897C134.73 389.12 192.702 439.863 192.702 439.863C192.702 439.863 2.09458 437.768 2.09458 437.768C2.09458 437.768 -188.513 435.673 -188.513 435.673C-188.513 435.673 -138.04 385.999 -141.384 326.755C-145.05 261.823 -94.2563 217.837 -94.2563 217.837C-94.2563 217.837 -47.6518 180.134 -47.1281 108.918C-46.6918 49.5814 0 0 0 0Z;M0 0C0 0 5.24807 68.0065 48.1754 109.966C108.983 169.402 96.3508 219.931 96.3508 219.931C96.3508 219.931 96.2864 288.374 144.526 329.897C190.022 369.057 192.702 439.863 192.702 439.863C192.702 439.863 2.09458 437.768 2.09458 437.768C2.09458 437.768 -188.513 435.673 -188.513 435.673C-188.513 435.673 -191.602 358.367 -141.384 326.755C-94.078 296.976 -94.2563 217.837 -94.2563 217.837C-94.2563 217.837 -91.593 159.042 -47.1281 108.918C-7.75017 64.5287 0 0 0 0Z;M0 0C0 0 47.2992 49.9443 48.1754 109.966C49.2227 181.705 96.3508 219.931 96.3508 219.931C96.3508 219.931 156.046 260.252 144.526 329.897C134.73 389.12 192.702 439.863 192.702 439.863C192.702 439.863 2.09458 437.768 2.09458 437.768C2.09458 437.768 -188.513 435.673 -188.513 435.673C-188.513 435.673 -138.04 385.999 -141.384 326.755C-145.05 261.823 -94.2563 217.837 -94.2563 217.837C-94.2563 217.837 -47.6518 180.134 -47.1281 108.918C-46.6918 49.5814 0 0 0 0Z;M0 0C0 0 5.24807 68.0065 48.1754 109.966C108.983 169.402 96.3508 219.931 96.3508 219.931C96.3508 219.931 96.2864 288.374 144.526 329.897C190.022 369.057 192.702 439.863 192.702 439.863C192.702 439.863 2.09458 437.768 2.09458 437.768C2.09458 437.768 -188.513 435.673 -188.513 435.673C-188.513 435.673 -191.602 358.367 -141.384 326.755C-94.078 296.976 -94.2563 217.837 -94.2563 217.837C-94.2563 217.837 -91.593 159.042 -47.1281 108.918C-7.75017 64.5287 0 0 0 0Z;M0 0C0 0 47.2992 49.9443 48.1754 109.966C49.2227 181.705 96.3508 219.931 96.3508 219.931C96.3508 219.931 156.046 260.252 144.526 329.897C134.73 389.12 192.702 439.863 192.702 439.863C192.702 439.863 2.09458 437.768 2.09458 437.768C2.09458 437.768 -188.513 435.673 -188.513 435.673C-188.513 435.673 -138.04 385.999 -141.384 326.755C-145.05 261.823 -94.2563 217.837 -94.2563 217.837C-94.2563 217.837 -47.6518 180.134 -47.1281 108.918C-46.6918 49.5814 0 0 0 0Z;M0 0C0 0 5.24807 68.0065 48.1754 109.966C108.983 169.402 96.3508 219.931 96.3508 219.931C96.3508 219.931 96.2864 288.374 144.526 329.897C190.022 369.057 192.702 439.863 192.702 439.863C192.702 439.863 2.09458 437.768 2.09458 437.768C2.09458 437.768 -188.513 435.673 -188.513 435.673C-188.513 435.673 -191.602 358.367 -141.384 326.755C-94.078 296.976 -94.2563 217.837 -94.2563 217.837C-94.2563 217.837 -91.593 159.042 -47.1281 108.918C-7.75017 64.5287 0 0 0 0Z;M0 0C0 0 47.2992 49.9443 48.1754 109.966C49.2227 181.705 96.3508 219.931 96.3508 219.931C96.3508 219.931 156.046 260.252 144.526 329.897C134.73 389.12 192.702 439.863 192.702 439.863C192.702 439.863 2.09458 437.768 2.09458 437.768C2.09458 437.768 -188.513 435.673 -188.513 435.673C-188.513 435.673 -138.04 385.999 -141.384 326.755C-145.05 261.823 -94.2563 217.837 -94.2563 217.837C-94.2563 217.837 -47.6518 180.134 -47.1281 108.918C-46.6918 49.5814 0 0 0 0Z;M0 0C0 0 5.24807 68.0065 48.1754 109.966C108.983 169.402 96.3508 219.931 96.3508 219.931C96.3508 219.931 96.2864 288.374 144.526 329.897C190.022 369.057 192.702 439.863 192.702 439.863C192.702 439.863 2.09458 437.768 2.09458 437.768C2.09458 437.768 -188.513 435.673 -188.513 435.673C-188.513 435.673 -191.602 358.367 -141.384 326.755C-94.078 296.976 -94.2563 217.837 -94.2563 217.837C-94.2563 217.837 -91.593 159.042 -47.1281 108.918C-7.75017 64.5287 0 0 0 0Z;M0 0C0 0 47.2992 49.9443 48.1754 109.966C49.2227 181.705 96.3508 219.931 96.3508 219.931C96.3508 219.931 156.046 260.252 144.526 329.897C134.73 389.12 192.702 439.863 192.702 439.863C192.702 439.863 2.09458 437.768 2.09458 437.768C2.09458 437.768 -188.513 435.673 -188.513 435.673C-188.513 435.673 -138.04 385.999 -141.384 326.755C-145.05 261.823 -94.2563 217.837 -94.2563 217.837C-94.2563 217.837 -47.6518 180.134 -47.1281 108.918C-46.6918 49.5814 0 0 0 0Z;M0 0C0 0 5.24807 68.0065 48.1754 109.966C108.983 169.402 96.3508 219.931 96.3508 219.931C96.3508 219.931 96.2864 288.374 144.526 329.897C190.022 369.057 192.702 439.863 192.702 439.863C192.702 439.863 2.09458 437.768 2.09458 437.768C2.09458 437.768 -188.513 435.673 -188.513 435.673C-188.513 435.673 -191.602 358.367 -141.384 326.755C-94.078 296.976 -94.2563 217.837 -94.2563 217.837C-94.2563 217.837 -91.593 159.042 -47.1281 108.918C-7.75017 64.5287 0 0 0 0Z;M0 0C0 0 47.2992 49.9443 48.1754 109.966C49.2227 181.705 96.3508 219.931 96.3508 219.931C96.3508 219.931 156.046 260.252 144.526 329.897C134.73 389.12 192.702 439.863 192.702 439.863C192.702 439.863 2.09458 437.768 2.09458 437.768C2.09458 437.768 -188.513 435.673 -188.513 435.673C-188.513 435.673 -138.04 385.999 -141.384 326.755C-145.05 261.823 -94.2563 217.837 -94.2563 217.837C-94.2563 217.837 -47.6518 180.134 -47.1281 108.918C-46.6918 49.5814 0 0 0 0Z;M0 0C0 0 5.24807 68.0065 48.1754 109.966C108.983 169.402 96.3508 219.931 96.3508 219.931C96.3508 219.931 96.2864 288.374 144.526 329.897C190.022 369.057 192.702 439.863 192.702 439.863C192.702 439.863 2.09458 437.768 2.09458 437.768C2.09458 437.768 -188.513 435.673 -188.513 435.673C-188.513 435.673 -191.602 358.367 -141.384 326.755C-94.078 296.976 -94.2563 217.837 -94.2563 217.837C-94.2563 217.837 -91.593 159.042 -47.1281 108.918C-7.75017 64.5287 0 0 0 0Z;M0 0C0 0 5.24807 68.0065 48.1754 109.966C108.983 169.402 96.3508 219.931 96.3508 219.931C96.3508 219.931 96.2864 288.374 144.526 329.897C190.022 369.057 192.702 439.863 192.702 439.863C192.702 439.863 2.09458 437.768 2.09458 437.768C2.09458 437.768 -188.513 435.673 -188.513 435.673C-188.513 435.673 -191.602 358.367 -141.384 326.755C-94.078 296.976 -94.2563 217.837 -94.2563 217.837C-94.2563 217.837 -91.593 159.042 -47.1281 108.918C-7.75017 64.5287 0 0 0 0Z" dur="5.5s" keySplines="0 0 1 1;0 0 1 1;0 0 1 1;0 0 1 1;0 0 1 1;0 0 1 1;0 0 1 1;0 0 1 1;0 0 1 1;0 0 1 1;0 0 1 1;0 0 1 1;0 0 1 1;0 0 1 1;0 0 1 1;0 0 1 1;0 0 1 1;0 0 1 1;0 0 1 1;0 0 1 1;0 0 1 1;0 0 1 1;0 0 1 1;0 0 1 1;0 0 1 1;0 0 1 1;0 0 1 1;0 0 1 1;0 0 1 1;0 0 1 1;0 0 1 1;0 0 1 1;0 0 1 1;0 0 1 1;0 0 1 1;0 0 1 1;0 0 1 1"/>
       </path>
      </g>
     </g>
    </g>
   </g>
  </g>
 </g>
 <g transform="translate(104.051 142.535)">
  <g>
   <animateTransform attributeName="transform" calcMode="spline" repeatCount="indefinite" type="translate" keyTimes="0;0;0.104515;0.113636;0.795455;0.89773;0.909091;1" values="428.544 1322.09;428.544 1322.09;428.544 404.848;428.544 406.995;428.544 406.995;428.544 -352.133;428.544 -347.505;428.544 -347.505" dur="5.5s" keySplines="0 0 1 1;0.0181163 0.919221 0.745038 1;0.622942 0 1 1;0 0 0.944444 1;0.117566 0.904883 0.742456 1;0.617161 0 1 1;0 0 1 1"/>
   <g transform="rotate(0)">
    <g transform="scale(6.18563 6.18563)">
     <g transform="skewX(0) skewY(0)">
      <g opacity="1" transform="translate(-104.051 -142.535)">
       <g>
        <g transform="translate(98.9087 115.307)">
         <g transform="translate(5.16656 0.397428)">
          <g transform="rotate(0)">
           <g transform="scale(1 1)">
            <g transform="skewX(0) skewY(0)">
             <g opacity="1" transform="translate(-98.9087 -115.307)">
              <g>
               <g transform="translate(98.8848 115.307)">
                <g transform="translate(0 0)">
                 <g transform="rotate(0)">
                  <g transform="scale(1 1)">
                   <g transform="skewX(0) skewY(0)">
                    <g opacity="1" transform="translate(-98.8848 -115.307)">
                     <path fill="#e6e6e6" d="M98.8845 87.647C98.8845 87.647 88.9906 88.9883 87.0393 106.262C84.9736 124.547 91.5325 142.938 91.5325 142.938C91.5325 142.938 98.8845 142.968 98.8845 142.968C98.8845 142.968 106.237 142.938 106.237 142.938C106.237 142.938 112.796 124.547 110.73 106.262C108.779 88.9883 98.8845 87.647 98.8845 87.647Z" stroke-width="0.079375" stroke="none"/>
                    </g>
                   </g>
                  </g>
                 </g>
                </g>
               </g>
               <g transform="translate(106.332 118.94)">
                <g transform="translate(0 0)">
                 <g transform="rotate(0)">
                  <g transform="scale(1 1)">
                   <g transform="skewX(0) skewY(0)">
                    <g opacity="1" transform="translate(-106.332 -118.94)">
                     <path fill="#f9f9f9" d="M107.453 94.9229C107.453 94.9229 107.451 94.925 107.451 94.925C107.428 94.9582 107.406 94.9913 107.383 95.0242C107.36 95.0573 107.337 95.0902 107.314 95.1229C107.29 95.1556 107.266 95.1882 107.242 95.2206C107.218 95.2531 107.194 95.2855 107.169 95.3177C107.144 95.3499 107.119 95.382 107.094 95.4139C107.069 95.4457 107.043 95.4774 107.018 95.5089C106.992 95.5405 106.966 95.5718 106.939 95.603C106.913 95.6343 106.886 95.6655 106.859 95.6965C106.832 95.7275 106.805 95.7583 106.777 95.789C106.75 95.8197 106.722 95.8502 106.694 95.8805C106.665 95.9108 106.637 95.9409 106.608 95.9709C106.58 96.0009 106.551 96.0307 106.522 96.0603C106.492 96.09 106.463 96.1194 106.433 96.1487C106.403 96.178 106.373 96.2071 106.343 96.236C106.313 96.265 106.283 96.2937 106.252 96.3223C106.221 96.3509 106.19 96.3794 106.159 96.4076C106.127 96.4359 106.096 96.464 106.064 96.4918C106.032 96.5198 106 96.5475 105.968 96.575C105.935 96.6024 105.903 96.6297 105.87 96.6567C105.837 96.6839 105.804 96.711 105.771 96.7378C105.737 96.7645 105.704 96.7911 105.67 96.8174C105.636 96.8436 105.602 96.8696 105.568 96.8954C105.533 96.9215 105.499 96.9473 105.464 96.9729C105.43 96.9985 105.395 97.0238 105.359 97.0489C105.324 97.0741 105.289 97.0991 105.253 97.1238C105.217 97.1485 105.181 97.173 105.145 97.1972C105.109 97.2215 105.072 97.2457 105.036 97.2696C104.999 97.2934 104.963 97.317 104.926 97.3404C104.889 97.3638 104.852 97.3871 104.814 97.4101C104.777 97.4333 104.739 97.4562 104.701 97.4789C104.701 97.4789 104.701 97.4789 104.701 97.4789C104.663 97.5013 104.625 97.5235 104.587 97.5455C104.549 97.5678 104.51 97.5898 104.472 97.6117C104.433 97.6333 104.394 97.6546 104.355 97.6758C104.316 97.697 104.277 97.718 104.237 97.7388C104.198 97.7597 104.158 97.7804 104.119 97.8008C104.079 97.821 104.039 97.841 103.999 97.8607C103.959 97.8806 103.918 97.9003 103.878 97.9197C103.878 97.9197 103.877 97.9197 103.877 97.9197C103.837 97.939 103.796 97.9581 103.755 97.977C103.714 97.996 103.673 98.0148 103.632 98.0333C103.591 98.0517 103.55 98.0697 103.508 98.0876C103.467 98.1056 103.425 98.1233 103.383 98.1408C103.383 98.1408 103.383 98.1408 103.383 98.1408C103.341 98.1583 103.299 98.1755 103.257 98.1925C103.215 98.2095 103.172 98.2262 103.13 98.2426C103.087 98.2591 103.045 98.2753 103.002 98.2912C102.959 98.3073 102.916 98.3232 102.873 98.3388C102.83 98.3542 102.787 98.3693 102.743 98.3842C102.7 98.3993 102.657 98.4141 102.613 98.4287C102.613 98.4287 102.613 98.4287 102.613 98.4287C102.569 98.4431 102.525 98.4572 102.481 98.4711C102.438 98.4851 102.394 98.4989 102.35 98.5124C102.305 98.5257 102.261 98.5388 102.217 98.5517C102.173 98.5647 102.128 98.5774 102.084 98.5899C102.039 98.6024 101.994 98.6146 101.949 98.6266C101.904 98.6384 101.859 98.6499 101.814 98.6612C101.786 98.6682 101.758 98.6751 101.731 98.6819C102.092 100.431 102.421 102.219 102.709 104.052C102.996 105.885 103.243 107.763 103.438 109.693C103.634 111.623 103.779 113.604 103.865 115.642C103.951 117.679 103.978 119.774 103.937 121.932C103.896 124.09 103.786 126.311 103.6 128.601C103.413 130.891 103.15 133.249 102.8 135.683C102.463 138.033 102.036 140.461 101.531 142.957C101.531 142.957 106.237 142.938 106.237 142.938C106.237 142.938 109.369 134.154 110.623 122.692C111.183 117.569 111.368 111.91 110.73 106.262C110.164 101.248 108.921 97.6089 107.452 94.923C107.452 94.923 107.453 94.9229 107.453 94.9229Z" stroke-width="0.079375" stroke="none"/>
                    </g>
                   </g>
                  </g>
                 </g>
                </g>
               </g>
               <g transform="translate(89.1321 118.931)">
                <g transform="translate(0 0)">
                 <g transform="rotate(0)">
                  <g transform="scale(1 1)">
                   <g transform="skewX(0) skewY(0)">
                    <g opacity="1" transform="translate(-89.1321 -118.931)">
                     <path fill="#f9f9f9" d="M91.6365 142.938C91.0205 140.502 90.4358 138.111 89.9466 135.851C89.375 133.21 88.8901 130.686 88.4925 128.274C88.0948 125.861 87.7841 123.561 87.5612 121.365C87.3384 119.17 87.2033 117.08 87.1561 115.09C87.1325 114.095 87.131 113.125 87.1514 112.179C87.1719 111.233 87.2144 110.312 87.279 109.413C87.3437 108.515 87.4305 107.64 87.5395 106.788C87.6485 105.936 87.7794 105.107 87.9327 104.3C88.0861 103.492 88.2619 102.707 88.4598 101.943C88.6578 101.179 88.8783 100.436 89.1208 99.7138C89.3633 98.9915 89.6278 98.2895 89.9151 97.6075C90.2023 96.9255 90.5121 96.2632 90.8442 95.62C90.8442 95.62 90.8287 95.6019 90.8287 95.6019C90.8022 95.5707 90.776 95.5394 90.7501 95.5079C90.7501 95.5079 90.7501 95.5073 90.7501 95.5073C90.7244 95.4758 90.6989 95.4441 90.6737 95.4123C90.6484 95.3804 90.6234 95.3483 90.5987 95.3161C90.5742 95.2839 90.5499 95.2515 90.5259 95.219C90.5018 95.1866 90.478 95.154 90.4546 95.1213C90.431 95.0886 90.4078 95.0556 90.3848 95.0226C90.3619 94.9897 90.3394 94.9566 90.3171 94.9234C88.8488 97.6093 87.6056 101.249 87.0393 106.262C84.9736 124.547 91.5325 142.938 91.5325 142.938C91.5325 142.938 91.6365 142.938 91.6365 142.938Z" stroke-width="0.079375" stroke="none"/>
                    </g>
                   </g>
                  </g>
                 </g>
                </g>
               </g>
               <g transform="translate(109.025 117.937)">
                <g transform="translate(0 0)">
                 <g transform="rotate(0)">
                  <g transform="scale(1 1)">
                   <g transform="skewX(0) skewY(0)">
                    <g opacity="1" transform="translate(-109.025 -117.937)">
                     <path fill="#e6e6e6" d="M107.453 94.9229C107.453 94.9229 107.451 94.925 107.451 94.925C107.428 94.9582 107.406 94.9913 107.383 95.0242C107.36 95.0573 107.337 95.0902 107.314 95.1229C107.29 95.1556 107.266 95.1882 107.242 95.2206C107.219 95.2514 107.196 95.282 107.173 95.3126C107.52 95.9944 107.839 96.6995 108.132 97.4272C108.424 98.1549 108.689 98.9052 108.928 99.6777C109.167 100.45 109.379 101.244 109.566 102.06C109.753 102.877 109.916 103.715 110.054 104.574C110.191 105.432 110.305 106.312 110.395 107.213C110.485 108.113 110.552 109.034 110.597 109.975C110.687 111.856 110.688 113.818 110.608 115.856C110.527 117.893 110.366 120.006 110.132 122.191C109.897 124.375 109.59 126.631 109.218 128.954C108.846 131.278 108.408 133.668 107.914 136.121C107.598 137.692 107.222 139.33 106.861 140.951C108.283 136.464 112.471 121.673 110.73 106.262C110.164 101.248 108.921 97.6089 107.452 94.923C107.452 94.923 107.453 94.9229 107.453 94.9229Z" stroke-width="0.079375" stroke="none"/>
                    </g>
                   </g>
                  </g>
                 </g>
                </g>
               </g>
              </g>
             </g>
            </g>
           </g>
          </g>
         </g>
        </g>
        <g transform="translate(98.8848 132.985)">
         <g>
          <animateTransform attributeName="transform" calcMode="spline" repeatCount="indefinite" type="translate" keyTimes="0;0;0.030303;0.121212;0.151515;0.212121;0.242424;0.318182;0.348485;0.393939;0.454545;0.530303;0.590909;0.69697;0.757576;0.848485;0.909091;1" values="6.26656 0.397428;6.26656 0.397428;5.16656 0.397428;6.26656 0.397428;5.16656 0.397428;6.26656 0.397428;5.16656 0.397428;6.26656 0.397428;5.16656 0.397428;6.26656 0.397428;5.16656 0.397428;6.26656 0.397428;5.16656 0.397428;6.26656 0.397428;5.16656 0.397428;6.26656 0.397428;5.16656 0.397428;5.16656 0.397428" dur="5.5s" keySplines="0 0 1 1;0 0 1 1;0 0 1 1;0 0 1 1;0 0 1 1;0 0 1 1;0 0 1 1;0 0 1 1;0 0 1 1;0 0 1 1;0 0 1 1;0 0 1 1;0 0 1 1;0 0 1 1;0 0 1 1;0 0 1 1;0 0 1 1"/>
          <g transform="rotate(0)">
           <g transform="scale(1 1)">
            <g transform="skewX(0) skewY(0)">
             <g opacity="1" transform="translate(-98.8848 -132.985)">
              <g>
               <g transform="translate(98.8848 132.985)">
                <g transform="translate(0 0)">
                 <g transform="rotate(0)">
                  <g transform="scale(1 1)">
                   <g transform="skewX(0) skewY(0)">
                    <g opacity="1" transform="translate(-98.8848 -132.985)">
                     <path fill="#3771c8" d="M98.8848 123.819C98.8848 123.819 97.2276 124.264 96.9008 129.987C96.5548 136.046 97.6534 142.14 97.6534 142.14C97.6534 142.14 98.8848 142.15 98.8848 142.15C98.8848 142.15 100.116 142.14 100.116 142.14C100.116 142.14 101.215 136.046 100.869 129.987C100.542 124.264 98.8848 123.819 98.8848 123.819C98.8848 123.819 98.8848 123.819 98.8848 123.819Z" stroke-width="0.079375" stroke="none"/>
                    </g>
                   </g>
                  </g>
                 </g>
                </g>
               </g>
               <g transform="translate(98.8848 132.985)">
                <g transform="translate(0 0)">
                 <g transform="rotate(0)">
                  <g transform="scale(1 1)">
                   <g transform="skewX(0) skewY(0)">
                    <g opacity="1" transform="translate(-98.8848 -132.985)">
                     <path fill="#5285d0" d="M98.8848 123.819C98.8848 123.819 97.8989 127.075 97.7045 132.799C97.4986 138.858 97.6534 142.14 97.6534 142.14C97.6534 142.14 98.8848 142.15 98.8848 142.15C98.8848 142.15 100.116 142.14 100.116 142.14C100.116 142.14 100.271 138.858 100.065 132.799C99.8707 127.075 98.8848 123.819 98.8848 123.819C98.8848 123.819 98.8848 123.819 98.8848 123.819Z" stroke-width="0.079375" stroke="none"/>
                    </g>
                   </g>
                  </g>
                 </g>
                </g>
               </g>
              </g>
             </g>
            </g>
           </g>
          </g>
         </g>
        </g>
        <g transform="translate(98.9319 146.836)">
         <g transform="translate(5.16656 0.397428)">
          <g transform="rotate(0)">
           <g transform="scale(1 1)">
            <g transform="skewX(0) skewY(0)">
             <g opacity="1" transform="translate(-98.9319 -146.836)">
              <g>
               <g transform="translate(98.8848 146.836)">
                <g transform="translate(0 0)">
                 <g transform="rotate(0)">
                  <g transform="scale(1 1)">
                   <g transform="skewX(0) skewY(0)">
                    <g opacity="1" transform="translate(-98.8848 -146.836)">
                     <path fill="#3771c8" d="M92.0617 143.996C92.0617 143.996 105.708 143.996 105.708 143.996C106.008 143.996 106.258 144.224 106.286 144.523C106.286 144.523 106.717 149.15 106.717 149.15C106.743 149.433 106.521 149.677 106.237 149.677C106.237 149.677 91.5325 149.677 91.5325 149.677C91.2486 149.677 91.0261 149.433 91.0525 149.15C91.0525 149.15 91.4835 144.523 91.4835 144.523C91.5113 144.224 91.7618 143.996 92.0617 143.996Z" stroke-width="0.079375" stroke="none"/>
                    </g>
                   </g>
                  </g>
                 </g>
                </g>
               </g>
               <g transform="translate(104.167 146.836)">
                <g transform="translate(0 0)">
                 <g transform="rotate(0)">
                  <g transform="scale(1 1)">
                   <g transform="skewX(0) skewY(0)">
                    <g opacity="1" transform="translate(-104.167 -146.836)">
                     <path fill="#5285d0" d="M101.891 149.677C101.891 149.677 106.237 149.677 106.237 149.677C106.237 149.677 106.258 149.676 106.258 149.676C106.268 149.676 106.278 149.675 106.288 149.674C106.298 149.673 106.308 149.672 106.318 149.67C106.328 149.668 106.338 149.666 106.348 149.664C106.348 149.664 106.367 149.659 106.377 149.656C106.377 149.656 106.405 149.647 106.405 149.647C106.415 149.644 106.424 149.64 106.433 149.636C106.433 149.636 106.46 149.623 106.46 149.623C106.469 149.618 106.478 149.613 106.486 149.608C106.486 149.608 106.511 149.592 106.511 149.592C106.519 149.586 106.528 149.58 106.535 149.574C106.543 149.568 106.551 149.561 106.559 149.555C106.566 149.548 106.58 149.534 106.58 149.534C106.587 149.527 106.594 149.519 106.601 149.512C106.607 149.504 106.614 149.496 106.62 149.488C106.626 149.481 106.632 149.472 106.637 149.464C106.637 149.464 106.653 149.439 106.653 149.439C106.658 149.43 106.663 149.421 106.668 149.412C106.672 149.403 106.676 149.394 106.68 149.385C106.684 149.376 106.688 149.367 106.692 149.357C106.692 149.357 106.701 149.329 106.701 149.329C106.704 149.319 106.706 149.309 106.709 149.299C106.711 149.289 106.713 149.28 106.715 149.27C106.715 149.27 106.719 149.24 106.719 149.24C106.719 149.23 106.72 149.22 106.721 149.21C106.721 149.2 106.721 149.18 106.721 149.18C106.721 149.17 106.72 149.16 106.719 149.15C106.719 149.15 106.288 144.523 106.288 144.523C106.288 144.523 106.288 144.521 106.288 144.521C106.287 144.51 106.286 144.5 106.284 144.489C106.282 144.478 106.28 144.467 106.278 144.456C106.276 144.446 106.273 144.435 106.27 144.424C106.267 144.414 106.264 144.403 106.261 144.393C106.258 144.382 106.254 144.372 106.25 144.362C106.246 144.352 106.241 144.342 106.237 144.332C106.232 144.322 106.227 144.312 106.222 144.302C106.217 144.293 106.211 144.283 106.205 144.274C106.2 144.264 106.194 144.255 106.188 144.246C106.181 144.237 106.175 144.228 106.168 144.22C106.161 144.211 106.154 144.203 106.147 144.194C106.14 144.186 106.132 144.178 106.125 144.17C106.117 144.162 106.109 144.155 106.101 144.147C106.093 144.14 106.084 144.133 106.076 144.126C106.067 144.119 106.059 144.112 106.05 144.105C106.041 144.099 106.032 144.093 106.022 144.087C106.013 144.081 106.004 144.076 105.994 144.07C105.984 144.065 105.975 144.06 105.965 144.055C105.955 144.05 105.945 144.046 105.935 144.041C105.925 144.037 105.915 144.033 105.904 144.029C105.894 144.026 105.883 144.022 105.873 144.019C105.862 144.016 105.852 144.014 105.841 144.011C105.83 144.009 105.819 144.007 105.808 144.005C105.798 144.003 105.787 144.001 105.776 144C105.765 143.999 105.754 143.998 105.743 143.997C105.732 143.996 105.721 143.996 105.71 143.996C105.71 143.996 101.613 143.996 101.613 143.996C101.613 143.996 101.891 149.677 101.891 149.677Z" stroke-width="0.264583" stroke="none"/>
                    </g>
                   </g>
                  </g>
                 </g>
                </g>
               </g>
              </g>
             </g>
            </g>
           </g>
          </g>
         </g>
        </g>
        <g transform="translate(98.8577 151.477)">
         <g transform="translate(5.16656 0.397428)">
          <g transform="rotate(0)">
           <g>
            <animateTransform attributeName="transform" calcMode="spline" repeatCount="indefinite" type="scale" keyTimes="0;0;0.030303;0.0606061;0.0909091;0.121212;0.151515;0.181818;0.212121;0.25;0.280303;0.318182;0.348485;0.378788;0.424242;0.462121;0.492424;0.522727;0.568182;0.606061;0.636364;0.666667;0.712121;0.75;0.780303;0.810606;1" values="1 1;1 1;1 1.14;1 1;1 1.14;1 1;1 1.14;1 1;1 1.14;1 1;1 1.14;1 1;1 1.14;1 1;1 1.14;1 1;1 1.14;1 1;1 1.14;1 1;1 1.14;1 1;1 1.14;1 1;1 1.14;1 1;1 1" dur="5.5s" keySplines="0 0 1 1;0 0 1 1;0 0 1 1;0 0 1 1;0 0 1 1;0 0 1 1;0 0 1 1;0 0 1 1;0 0 1 1;0 0 1 1;0 0 1 1;0 0 1 1;0 0 1 1;0 0 1 1;0 0 1 1;0 0 1 1;0 0 1 1;0 0 1 1;0 0 1 1;0 0 1 1;0 0 1 1;0 0 1 1;0 0 1 1;0 0 1 1;0 0 1 1;0 0 1 1"/>
            <g transform="skewX(0) skewY(0)">
             <g opacity="1" transform="translate(-98.8577 -151.477)">
              <g>
               <g transform="translate(98.8528 158.448)">
                <g transform="translate(0 0)">
                 <g transform="rotate(0)">
                  <g transform="scale(1 1)">
                   <g transform="skewX(0) skewY(0)">
                    <g opacity="1" transform="translate(-98.8528 -158.448)">
                     <path fill="#ff6600" d="M98.8526 151.283C98.8526 151.283 93.8513 151.294 93.8513 151.294C93.8513 151.294 92.2843 154.026 93.7531 158.371C95.222 162.717 98.8526 165.614 98.8526 165.614C98.8526 165.614 102.483 162.717 103.952 158.371C105.421 154.026 103.854 151.294 103.854 151.294C103.854 151.294 98.8526 151.283 98.8526 151.283Z" stroke-width="0.079375" stroke="none"/>
                    </g>
                   </g>
                  </g>
                 </g>
                </g>
               </g>
               <g transform="translate(101.664 158.452)">
                <g transform="translate(0 0)">
                 <g transform="rotate(0)">
                  <g transform="scale(1 1)">
                   <g transform="skewX(0) skewY(0)">
                    <g opacity="1" transform="translate(-101.664 -158.452)">
                     <path fill="#ff7f2b" d="M98.7477 165.521C98.7615 165.532 98.8526 165.614 98.8526 165.614C98.8526 165.614 99.0794 165.433 99.4427 165.093C99.806 164.754 100.306 164.256 100.851 163.622C101.397 162.988 101.989 162.219 102.536 161.336C102.809 160.895 103.071 160.425 103.311 159.93C103.551 159.435 103.768 158.914 103.952 158.371C104.136 157.828 104.272 157.31 104.37 156.819C104.467 156.329 104.526 155.866 104.556 155.432C104.586 154.999 104.586 154.595 104.566 154.223C104.546 153.85 104.506 153.51 104.454 153.203C104.35 152.59 104.199 152.113 104.075 151.789C103.952 151.465 103.854 151.294 103.854 151.294C103.854 151.294 102.527 151.291 102.527 151.291C103.552 156.869 101.233 161.225 98.7476 165.521C98.7476 165.521 98.7477 165.521 98.7477 165.521Z" stroke-width="0.264583" stroke="none"/>
                    </g>
                   </g>
                  </g>
                 </g>
                </g>
               </g>
               <g transform="translate(98.8577 151.477)">
                <g transform="translate(0 0)">
                 <g transform="rotate(0)">
                  <g>
                   <animateTransform attributeName="transform" calcMode="spline" repeatCount="indefinite" type="scale" keyTimes="0;0;0.030303;0.0606061;0.0909091;0.121212;0.151515;1" values="1 1;1 1;1 1.14;1 1;1 1.14;1 1;1 1.14;1 1.14" dur="5.5s" keySplines="0 0 1 1;0 0 1 1;0 0 1 1;0 0 1 1;0 0 1 1;0 0 1 1;0 0 1 1"/>
                   <g transform="skewX(0) skewY(0)">
                    <g opacity="1" transform="translate(-98.8577 -151.477)">
                     <g>
                      <g transform="translate(98.8528 158.448)">
                       <g transform="translate(0 0)">
                        <g transform="rotate(0)">
                         <g transform="scale(1 1)">
                          <g transform="skewX(0) skewY(0)">
                           <g opacity="1" transform="translate(-98.8528 -158.448)">
                            <path fill="#ff6600" d="M98.8526 151.283C98.8526 151.283 93.8513 151.294 93.8513 151.294C93.8513 151.294 92.2843 154.026 93.7531 158.371C95.222 162.717 98.8526 165.614 98.8526 165.614C98.8526 165.614 102.483 162.717 103.952 158.371C105.421 154.026 103.854 151.294 103.854 151.294C103.854 151.294 98.8526 151.283 98.8526 151.283Z" stroke-width="0.079375" stroke="none"/>
                           </g>
                          </g>
                         </g>
                        </g>
                       </g>
                      </g>
                      <g transform="translate(101.664 158.452)">
                       <g transform="translate(0 0)">
                        <g transform="rotate(0)">
                         <g transform="scale(1 1)">
                          <g transform="skewX(0) skewY(0)">
                           <g opacity="1" transform="translate(-101.664 -158.452)">
                            <path fill="#ff7f2b" d="M98.7477 165.521C98.7615 165.532 98.8526 165.614 98.8526 165.614C98.8526 165.614 99.0794 165.433 99.4427 165.093C99.806 164.754 100.306 164.256 100.851 163.622C101.397 162.988 101.989 162.219 102.536 161.336C102.809 160.895 103.071 160.425 103.311 159.93C103.551 159.435 103.768 158.914 103.952 158.371C104.136 157.828 104.272 157.31 104.37 156.819C104.467 156.329 104.526 155.866 104.556 155.432C104.586 154.999 104.586 154.595 104.566 154.223C104.546 153.85 104.506 153.51 104.454 153.203C104.35 152.59 104.199 152.113 104.075 151.789C103.952 151.465 103.854 151.294 103.854 151.294C103.854 151.294 102.527 151.291 102.527 151.291C103.552 156.869 101.233 161.225 98.7476 165.521C98.7476 165.521 98.7477 165.521 98.7477 165.521Z" stroke-width="0.264583" stroke="none"/>
                           </g>
                          </g>
                         </g>
                        </g>
                       </g>
                      </g>
                     </g>
                    </g>
                   </g>
                  </g>
                 </g>
                </g>
               </g>
               <g transform="translate(98.8577 151.477)">
                <g transform="translate(0 0)">
                 <g transform="rotate(0)">
                  <g>
                   <animateTransform attributeName="transform" calcMode="spline" repeatCount="indefinite" type="scale" keyTimes="0;0;0.030303;0.0606061;0.0909091;0.121212;0.151515;1" values="1 1;1 1;1 1.14;1 1;1 1.14;1 1;1 1.14;1 1.14" dur="5.5s" keySplines="0 0 1 1;0 0 1 1;0 0 1 1;0 0 1 1;0 0 1 1;0 0 1 1;0 0 1 1"/>
                   <g transform="skewX(0) skewY(0)">
                    <g opacity="1" transform="translate(-98.8577 -151.477)">
                     <g>
                      <g transform="translate(98.8528 158.448)">
                       <g transform="translate(0 0)">
                        <g transform="rotate(0)">
                         <g transform="scale(1 1)">
                          <g transform="skewX(0) skewY(0)">
                           <g opacity="1" transform="translate(-98.8528 -158.448)">
                            <path fill="#ff6600" d="M98.8526 151.283C98.8526 151.283 93.8513 151.294 93.8513 151.294C93.8513 151.294 92.2843 154.026 93.7531 158.371C95.222 162.717 98.8526 165.614 98.8526 165.614C98.8526 165.614 102.483 162.717 103.952 158.371C105.421 154.026 103.854 151.294 103.854 151.294C103.854 151.294 98.8526 151.283 98.8526 151.283Z" stroke-width="0.079375" stroke="none"/>
                           </g>
                          </g>
                         </g>
                        </g>
                       </g>
                      </g>
                      <g transform="translate(101.664 158.452)">
                       <g transform="translate(0 0)">
                        <g transform="rotate(0)">
                         <g transform="scale(1 1)">
                          <g transform="skewX(0) skewY(0)">
                           <g opacity="1" transform="translate(-101.664 -158.452)">
                            <path fill="#ff7f2b" d="M98.7477 165.521C98.7615 165.532 98.8526 165.614 98.8526 165.614C98.8526 165.614 99.0794 165.433 99.4427 165.093C99.806 164.754 100.306 164.256 100.851 163.622C101.397 162.988 101.989 162.219 102.536 161.336C102.809 160.895 103.071 160.425 103.311 159.93C103.551 159.435 103.768 158.914 103.952 158.371C104.136 157.828 104.272 157.31 104.37 156.819C104.467 156.329 104.526 155.866 104.556 155.432C104.586 154.999 104.586 154.595 104.566 154.223C104.546 153.85 104.506 153.51 104.454 153.203C104.35 152.59 104.199 152.113 104.075 151.789C103.952 151.465 103.854 151.294 103.854 151.294C103.854 151.294 102.527 151.291 102.527 151.291C103.552 156.869 101.233 161.225 98.7476 165.521C98.7476 165.521 98.7477 165.521 98.7477 165.521Z" stroke-width="0.264583" stroke="none"/>
                           </g>
                          </g>
                         </g>
                        </g>
                       </g>
                      </g>
                     </g>
                    </g>
                   </g>
                  </g>
                 </g>
                </g>
               </g>
               <g transform="translate(98.8577 151.477)">
                <g transform="translate(0 0)">
                 <g transform="rotate(0)">
                  <g>
                   <animateTransform attributeName="transform" calcMode="spline" repeatCount="indefinite" type="scale" keyTimes="0;0;0.030303;0.0606061;0.0909091;0.121212;0.151515;1" values="1 1;1 1;1 1.14;1 1;1 1.14;1 1;1 1.14;1 1.14" dur="5.5s" keySplines="0 0 1 1;0 0 1 1;0 0 1 1;0 0 1 1;0 0 1 1;0 0 1 1;0 0 1 1"/>
                   <g transform="skewX(0) skewY(0)">
                    <g opacity="1" transform="translate(-98.8577 -151.477)">
                     <g>
                      <g transform="translate(98.8528 158.448)">
                       <g transform="translate(0 0)">
                        <g transform="rotate(0)">
                         <g transform="scale(1 1)">
                          <g transform="skewX(0) skewY(0)">
                           <g opacity="1" transform="translate(-98.8528 -158.448)">
                            <path fill="#ff6600" d="M98.8526 151.283C98.8526 151.283 93.8513 151.294 93.8513 151.294C93.8513 151.294 92.2843 154.026 93.7531 158.371C95.222 162.717 98.8526 165.614 98.8526 165.614C98.8526 165.614 102.483 162.717 103.952 158.371C105.421 154.026 103.854 151.294 103.854 151.294C103.854 151.294 98.8526 151.283 98.8526 151.283Z" stroke-width="0.079375" stroke="none"/>
                           </g>
                          </g>
                         </g>
                        </g>
                       </g>
                      </g>
                      <g transform="translate(101.664 158.452)">
                       <g transform="translate(0 0)">
                        <g transform="rotate(0)">
                         <g transform="scale(1 1)">
                          <g transform="skewX(0) skewY(0)">
                           <g opacity="1" transform="translate(-101.664 -158.452)">
                            <path fill="#ff7f2b" d="M98.7477 165.521C98.7615 165.532 98.8526 165.614 98.8526 165.614C98.8526 165.614 99.0794 165.433 99.4427 165.093C99.806 164.754 100.306 164.256 100.851 163.622C101.397 162.988 101.989 162.219 102.536 161.336C102.809 160.895 103.071 160.425 103.311 159.93C103.551 159.435 103.768 158.914 103.952 158.371C104.136 157.828 104.272 157.31 104.37 156.819C104.467 156.329 104.526 155.866 104.556 155.432C104.586 154.999 104.586 154.595 104.566 154.223C104.546 153.85 104.506 153.51 104.454 153.203C104.35 152.59 104.199 152.113 104.075 151.789C103.952 151.465 103.854 151.294 103.854 151.294C103.854 151.294 102.527 151.291 102.527 151.291C103.552 156.869 101.233 161.225 98.7476 165.521C98.7476 165.521 98.7477 165.521 98.7477 165.521Z" stroke-width="0.264583" stroke="none"/>
                           </g>
                          </g>
                         </g>
                        </g>
                       </g>
                      </g>
                     </g>
                    </g>
                   </g>
                  </g>
                 </g>
                </g>
               </g>
              </g>
             </g>
            </g>
           </g>
          </g>
         </g>
        </g>
        <g transform="translate(102.977 108.512)">
         <g>
          <animateTransform attributeName="transform" calcMode="spline" repeatCount="indefinite" type="translate" keyTimes="0;0;0.030303;0.121212;0.151515;0.212121;0.242424;0.318182;0.348485;0.393939;0.454545;0.530303;0.590909;0.69697;0.757576;0.848485;0.909091;1" values="6.667 0.397428;6.667 0.397428;5.16656 0.397428;6.667 0.397428;5.16656 0.397428;6.667 0.397428;5.16656 0.397428;6.667 0.397428;5.16656 0.397428;6.667 0.397428;5.16656 0.397428;6.667 0.397428;5.16656 0.397428;6.667 0.397428;5.16656 0.397428;6.667 0.397428;5.16656 0.397428;5.16656 0.397428" dur="5.5s" keySplines="0 0 1 1;0 0 1 1;0 0 1 1;0 0 1 1;0 0 1 1;0 0 1 1;0 0 1 1;0 0 1 1;0 0 1 1;0 0 1 1;0 0 1 1;0 0 1 1;0 0 1 1;0 0 1 1;0 0 1 1;0 0 1 1;0 0 1 1"/>
          <g transform="rotate(0)">
           <g>
            <animateTransform attributeName="transform" calcMode="spline" repeatCount="indefinite" type="scale" keyTimes="0;0;0.030303;0.121212;0.151515;0.212121;0.242424;0.318182;0.348485;0.393939;0.454545;0.530303;0.590909;0.69697;0.757576;0.848485;0.909091;1" values="0.9 1;0.9 1;1 1;0.9 1;1 1;0.9 1;1 1;0.9 1;1 1;0.9 1;1 1;0.9 1;1 1;0.9 1;1 1;0.9 1;1 1;1 1" dur="5.5s" keySplines="0 0 1 1;0 0 1 1;0 0 1 1;0 0 1 1;0 0 1 1;0 0 1 1;0 0 1 1;0 0 1 1;0 0 1 1;0 0 1 1;0 0 1 1;0 0 1 1;0 0 1 1;0 0 1 1;0 0 1 1;0 0 1 1;0 0 1 1"/>
            <g transform="skewX(0) skewY(0)">
             <g opacity="1" transform="translate(-102.977 -108.512)">
              <g>
               <g transform="translate(98.8848 108.513)">
                <g transform="translate(0 0)">
                 <g transform="rotate(0)">
                  <g transform="scale(1 1)">
                   <g transform="skewX(0) skewY(0)">
                    <g opacity="1" transform="translate(-98.8848 -108.513)">
                     <path fill="#373e48" d="M104.301 108.513C104.301 109.065 104.261 109.604 104.184 110.124C103.666 113.635 101.491 116.27 98.8848 116.27C95.8936 116.27 93.4687 112.797 93.4687 108.513C93.4687 104.229 95.8936 100.756 98.8848 100.756C101.876 100.756 104.301 104.229 104.301 108.513Z" stroke-width="0.079375" stroke="none"/>
                    </g>
                   </g>
                  </g>
                 </g>
                </g>
               </g>
               <g transform="translate(97.892 108.512)">
                <g transform="translate(0 0)">
                 <g transform="rotate(0)">
                  <g transform="scale(1 1)">
                   <g transform="skewX(0) skewY(0)">
                    <g opacity="1" transform="translate(-97.892 -108.512)">
                     <path fill="#2d323a" d="M102.315 102.511C102.315 102.511 102.314 102.51 102.314 102.51C102.291 102.482 102.267 102.455 102.244 102.428C102.22 102.401 102.196 102.375 102.172 102.348C102.148 102.322 102.124 102.296 102.1 102.271C102.076 102.245 102.051 102.22 102.026 102.194C102.002 102.169 101.977 102.145 101.952 102.12C101.927 102.096 101.902 102.072 101.877 102.048C101.852 102.024 101.827 102 101.801 101.977C101.776 101.954 101.75 101.931 101.724 101.908C101.698 101.885 101.673 101.863 101.647 101.841C101.621 101.819 101.595 101.797 101.569 101.776C101.542 101.754 101.516 101.733 101.49 101.712C101.463 101.691 101.436 101.671 101.409 101.651C101.383 101.631 101.356 101.611 101.329 101.591C101.302 101.572 101.275 101.553 101.248 101.534C101.221 101.515 101.194 101.496 101.166 101.478C101.139 101.46 101.111 101.442 101.084 101.424C101.056 101.407 101.028 101.39 101.001 101.373C100.973 101.356 100.945 101.339 100.917 101.323C100.889 101.307 100.861 101.291 100.833 101.275C100.805 101.26 100.776 101.245 100.748 101.23C100.72 101.215 100.691 101.2 100.663 101.186C100.634 101.172 100.606 101.158 100.577 101.145C100.548 101.131 100.519 101.118 100.491 101.105C100.462 101.092 100.433 101.08 100.404 101.068C100.375 101.056 100.346 101.044 100.317 101.033C100.288 101.021 100.258 101.01 100.229 100.999C100.2 100.988 100.171 100.978 100.141 100.968C100.112 100.958 100.083 100.948 100.053 100.939C100.024 100.93 99.9942 100.921 99.9647 100.912C99.9351 100.904 99.9055 100.895 99.8758 100.887C99.846 100.88 99.8162 100.872 99.7864 100.865C99.7566 100.857 99.7268 100.851 99.697 100.844C99.667 100.838 99.6371 100.832 99.6071 100.826C99.5773 100.82 99.5475 100.815 99.5177 100.809C99.4875 100.804 99.4574 100.8 99.4272 100.796C99.3973 100.791 99.3673 100.787 99.3373 100.784C99.3072 100.78 99.277 100.777 99.2469 100.774C99.2168 100.771 99.1866 100.768 99.1564 100.766C99.1263 100.764 99.0962 100.762 99.066 100.761C99.0359 100.759 99.0057 100.758 98.9756 100.758C98.9453 100.757 98.915 100.756 98.8846 100.756C98.8567 100.756 98.8288 100.756 98.8009 100.757C98.7706 100.757 98.7403 100.758 98.71 100.76C98.6798 100.761 98.6497 100.763 98.6195 100.765C98.5894 100.767 98.5592 100.77 98.5291 100.773C98.4991 100.775 98.4691 100.778 98.4392 100.782C98.409 100.785 98.3789 100.789 98.3487 100.794C98.3187 100.798 98.2888 100.802 98.2588 100.807C98.2288 100.812 98.1988 100.818 98.1689 100.823C98.1389 100.829 98.1089 100.835 98.079 100.842C98.0491 100.848 98.0193 100.855 97.9896 100.862C97.9599 100.869 97.9303 100.877 97.9007 100.884C97.8708 100.892 97.841 100.901 97.8113 100.909C97.7818 100.918 97.7523 100.927 97.7229 100.936C97.6934 100.945 97.664 100.955 97.6346 100.965C97.6052 100.975 97.5759 100.985 97.5467 100.996C97.5174 101.007 97.4881 101.018 97.4589 101.029C97.4299 101.04 97.4009 101.052 97.372 101.064C97.343 101.076 97.3141 101.089 97.2852 101.101C97.2564 101.114 97.2276 101.127 97.1989 101.141C97.1702 101.154 97.1416 101.168 97.1131 101.182C97.0846 101.196 97.0562 101.211 97.0279 101.225C96.9994 101.24 96.9709 101.255 96.9426 101.271C96.9144 101.286 96.8864 101.302 96.8584 101.318C96.8304 101.335 96.8025 101.351 96.7747 101.368C96.747 101.385 96.7194 101.402 96.692 101.42C96.6643 101.437 96.6367 101.455 96.6093 101.473C96.5818 101.492 96.5544 101.51 96.5271 101.529C96.5 101.548 96.4729 101.567 96.446 101.586C96.419 101.606 96.3921 101.625 96.3654 101.646C96.3387 101.666 96.3122 101.686 96.2858 101.707C96.2593 101.728 96.233 101.749 96.2067 101.77C96.1804 101.792 96.1542 101.813 96.1282 101.835C96.1022 101.857 96.0764 101.879 96.0507 101.902C96.025 101.925 95.9996 101.947 95.9742 101.971C95.9487 101.994 95.9234 102.018 95.8982 102.041C95.8729 102.065 95.8478 102.089 95.8228 102.114C95.7978 102.138 95.773 102.163 95.7484 102.188C95.7238 102.213 95.6993 102.239 95.675 102.264C95.6507 102.29 95.6266 102.316 95.6027 102.342C95.5787 102.368 95.555 102.394 95.5313 102.421C95.5076 102.448 95.484 102.475 95.4605 102.502C95.4371 102.53 95.4139 102.558 95.3908 102.586C95.3677 102.613 95.3448 102.641 95.322 102.67C95.2993 102.698 95.2767 102.727 95.2543 102.756C95.2319 102.785 95.2097 102.814 95.1877 102.844C95.1656 102.874 95.1438 102.903 95.1221 102.933C95.1003 102.963 95.0788 102.993 95.0575 103.024C95.0361 103.054 95.0149 103.085 94.9939 103.116C94.9729 103.147 94.952 103.179 94.9314 103.21C94.9107 103.242 94.8902 103.274 94.8699 103.306C94.8497 103.338 94.8297 103.37 94.8099 103.402C94.7899 103.435 94.7701 103.468 94.7505 103.501C94.731 103.534 94.7117 103.567 94.6926 103.6C94.6735 103.634 94.6545 103.668 94.6358 103.702C94.6172 103.736 94.5987 103.77 94.5805 103.804C94.5622 103.838 94.5441 103.873 94.5262 103.908C94.5083 103.943 94.4905 103.978 94.473 104.013C94.4554 104.048 94.438 104.083 94.4208 104.119C94.4037 104.155 94.3868 104.191 94.3702 104.227C94.3536 104.263 94.3372 104.299 94.3211 104.335C94.3047 104.372 94.2885 104.408 94.2725 104.445C94.2568 104.482 94.2413 104.519 94.226 104.556C94.2106 104.594 94.1955 104.631 94.1805 104.669C94.1655 104.706 94.1507 104.744 94.1361 104.782C94.1216 104.82 94.1073 104.858 94.0932 104.896C94.0792 104.934 94.0654 104.973 94.0518 105.011C94.0382 105.05 94.0247 105.088 94.0115 105.127C93.9984 105.166 93.9855 105.205 93.9728 105.245C93.96 105.284 93.9474 105.323 93.9351 105.363C93.9228 105.402 93.9107 105.442 93.8989 105.482C93.8871 105.522 93.8756 105.562 93.8643 105.602C93.853 105.642 93.842 105.682 93.8312 105.722C93.8203 105.763 93.8096 105.803 93.7991 105.844C93.7887 105.884 93.7786 105.925 93.7687 105.966C93.7588 106.006 93.7491 106.047 93.7397 106.089C93.7304 106.13 93.7212 106.171 93.7123 106.212C93.7033 106.253 93.6945 106.295 93.686 106.337C93.6775 106.378 93.6692 106.42 93.6612 106.461C93.6534 106.503 93.6458 106.545 93.6385 106.587C93.6308 106.628 93.6234 106.67 93.6162 106.712C93.6093 106.754 93.6026 106.797 93.5961 106.839C93.5896 106.881 93.5834 106.924 93.5775 106.966C93.5714 107.008 93.5655 107.051 93.5599 107.093C93.5545 107.136 93.5493 107.178 93.5444 107.221C93.5393 107.263 93.5345 107.306 93.5299 107.349C93.5254 107.392 93.5211 107.434 93.517 107.477C93.513 107.52 93.5092 107.563 93.5056 107.606C93.5021 107.649 93.4989 107.692 93.4958 107.735C93.4928 107.778 93.4901 107.821 93.4875 107.864C93.4851 107.907 93.4828 107.95 93.4808 107.993C93.4789 108.037 93.4771 108.08 93.4756 108.123C93.474 108.166 93.4726 108.21 93.4715 108.253C93.4706 108.296 93.4699 108.339 93.4694 108.382C93.469 108.426 93.4688 108.469 93.4689 108.512C93.4689 108.552 93.4691 108.592 93.4694 108.633C93.4699 108.676 93.4706 108.719 93.4715 108.762C93.4725 108.805 93.4737 108.848 93.4751 108.891C93.4766 108.935 93.4784 108.978 93.4803 109.021C93.4823 109.064 93.4846 109.107 93.487 109.15C93.4896 109.193 93.4923 109.237 93.4953 109.28C93.4984 109.323 93.5016 109.366 93.5051 109.409C93.5087 109.452 93.5125 109.495 93.5165 109.537C93.5204 109.58 93.5246 109.623 93.5289 109.666C93.5335 109.709 93.5383 109.751 93.5434 109.794C93.5483 109.837 93.5535 109.879 93.5589 109.922C93.5644 109.964 93.57 110.007 93.576 110.049C93.5821 110.091 93.5885 110.134 93.5951 110.176C93.6016 110.218 93.6083 110.26 93.6153 110.302C93.6221 110.344 93.6292 110.386 93.6365 110.428C93.644 110.47 93.6517 110.512 93.6597 110.554C93.6677 110.596 93.676 110.637 93.6845 110.679C93.6929 110.72 93.7015 110.762 93.7104 110.803C93.7192 110.844 93.7284 110.885 93.7377 110.926C93.7472 110.968 93.7568 111.009 93.7667 111.049C93.7766 111.09 93.7868 111.131 93.7972 111.172C93.8074 111.213 93.8179 111.253 93.8287 111.293C93.8397 111.334 93.8508 111.374 93.8623 111.414C93.8736 111.454 93.8851 111.494 93.8969 111.534C93.9086 111.574 93.9204 111.613 93.9326 111.653C93.9447 111.692 93.9571 111.732 93.9698 111.771C93.9825 111.81 93.9954 111.849 94.0085 111.888C94.0217 111.927 94.0352 111.966 94.0488 112.004C94.0624 112.043 94.0762 112.081 94.0902 112.12C94.1042 112.158 94.1185 112.196 94.1331 112.234C94.1475 112.272 94.1621 112.31 94.177 112.348C94.1919 112.385 94.2071 112.423 94.2225 112.46C94.2379 112.497 94.2536 112.534 94.2695 112.571C94.2853 112.608 94.3013 112.644 94.3176 112.681C94.3337 112.717 94.3501 112.753 94.3667 112.789C94.3833 112.826 94.4002 112.862 94.4173 112.897C94.4343 112.933 94.4515 112.968 94.469 113.003C94.4865 113.039 94.5043 113.074 94.5222 113.109C94.5401 113.144 94.5582 113.178 94.5765 113.213C94.5949 113.247 94.6135 113.281 94.6323 113.315C94.6509 113.349 94.6696 113.383 94.6886 113.416C94.7077 113.45 94.727 113.483 94.7465 113.516C94.7659 113.549 94.7856 113.582 94.8054 113.615C94.8254 113.647 94.8455 113.679 94.8659 113.711C94.886 113.743 94.9063 113.775 94.9268 113.807C94.9475 113.838 94.9683 113.87 94.9894 113.901C95.0104 113.932 95.0316 113.963 95.0529 113.993C95.0743 114.024 95.0958 114.054 95.1175 114.084C95.1392 114.114 95.1611 114.144 95.1832 114.174C95.2052 114.203 95.2274 114.232 95.2498 114.261C95.2722 114.29 95.2948 114.319 95.3175 114.348C95.3401 114.376 95.3628 114.405 95.3857 114.432C95.4088 114.46 95.4321 114.488 95.4555 114.516C95.4789 114.543 95.5025 114.57 95.5263 114.597C95.5499 114.624 95.5737 114.65 95.5976 114.676C95.6216 114.703 95.6457 114.729 95.6699 114.754C95.6943 114.78 95.7187 114.805 95.7433 114.83C95.768 114.855 95.7928 114.88 95.8177 114.905C95.8426 114.929 95.8675 114.953 95.8927 114.977C95.9178 115.001 95.9432 115.025 95.9686 115.048C95.994 115.071 96.0195 115.094 96.0451 115.117C96.0708 115.14 96.0966 115.162 96.1226 115.184C96.1487 115.206 96.1749 115.228 96.2012 115.249C96.2274 115.271 96.2538 115.292 96.2802 115.313C96.3066 115.333 96.3332 115.354 96.3598 115.374C96.3866 115.394 96.4135 115.414 96.4404 115.433C96.4674 115.453 96.4944 115.472 96.5216 115.491C96.5487 115.51 96.5759 115.529 96.6032 115.547C96.6307 115.565 96.6582 115.583 96.6859 115.6C96.7135 115.618 96.7413 115.635 96.7691 115.652C96.7969 115.669 96.8248 115.686 96.8528 115.702C96.8808 115.718 96.9089 115.734 96.937 115.749C96.9652 115.765 96.9934 115.78 97.0218 115.795C97.0501 115.81 97.0786 115.825 97.1071 115.839C97.1356 115.853 97.1642 115.867 97.1928 115.881C97.2215 115.894 97.2503 115.907 97.2791 115.92C97.308 115.933 97.337 115.945 97.366 115.957C97.3948 115.969 97.4238 115.981 97.4528 115.993C97.482 116.004 97.5113 116.015 97.5406 116.026C97.5699 116.037 97.5991 116.047 97.6285 116.057C97.6579 116.067 97.6873 116.077 97.7169 116.086C97.7463 116.096 97.7757 116.105 97.8052 116.113C97.8348 116.122 97.8644 116.13 97.8941 116.138C97.9239 116.146 97.9537 116.153 97.9835 116.161C98.0133 116.168 98.0431 116.174 98.0729 116.181C98.1027 116.187 98.1325 116.194 98.1623 116.199C98.1923 116.205 98.2222 116.21 98.2522 116.215C98.2824 116.22 98.3125 116.225 98.3427 116.229C98.3726 116.234 98.4026 116.238 98.4326 116.241C98.4627 116.245 98.4929 116.248 98.523 116.251C98.5532 116.254 98.5833 116.257 98.6135 116.259C98.6436 116.262 98.6737 116.264 98.7039 116.265C98.734 116.267 98.7642 116.268 98.7943 116.268C98.8245 116.269 98.8546 116.269 98.8848 116.269C98.9128 116.269 98.9409 116.269 98.969 116.268C98.9991 116.268 99.0293 116.267 99.0594 116.265C99.0896 116.264 99.1197 116.262 99.1498 116.26C99.18 116.258 99.2101 116.256 99.2403 116.253C99.2704 116.25 99.3006 116.247 99.3307 116.243C99.3609 116.24 99.391 116.236 99.4211 116.231C99.4511 116.227 99.4811 116.222 99.5111 116.217C99.5411 116.212 99.571 116.207 99.601 116.201C99.631 116.196 99.661 116.19 99.6909 116.183C99.7207 116.177 99.7505 116.17 99.7803 116.163C99.81 116.156 99.8396 116.148 99.8692 116.14C99.8988 116.133 99.9285 116.124 99.9581 116.116C99.9877 116.107 100.017 116.098 100.047 116.089C100.076 116.08 100.106 116.07 100.135 116.06C100.158 116.052 100.182 116.044 100.205 116.036C99.4015 115.071 98.2957 113.891 97.6212 112.313C96.0282 108.587 98.1303 103.777 100.405 103.458C101.337 103.327 101.904 102.926 102.315 102.51C102.315 102.51 102.315 102.511 102.315 102.511Z" stroke-width="0.264583" stroke="none"/>
                    </g>
                   </g>
                  </g>
                 </g>
                </g>
               </g>
              </g>
             </g>
            </g>
           </g>
          </g>
         </g>
        </g>
        <g transform="translate(84.552 136.72)">
         <g>
          <animateTransform attributeName="transform" calcMode="spline" repeatCount="indefinite" type="translate" keyTimes="0;0;0.030303;0.121212;0.151515;0.212121;0.242424;0.318182;0.348485;0.393939;0.454545;0.530303;0.590909;0.69697;0.757576;0.848485;0.909091;1" values="6.26656 0.397428;6.26656 0.397428;5.16656 0.397428;6.26656 0.397428;5.16656 0.397428;6.26656 0.397428;5.16656 0.397428;6.26656 0.397428;5.16656 0.397428;6.26656 0.397428;5.16656 0.397428;6.26656 0.397428;5.16656 0.397428;6.26656 0.397428;5.16656 0.397428;6.26656 0.397428;5.16656 0.397428;5.16656 0.397428" dur="5.5s" keySplines="0 0 1 1;0 0 1 1;0 0 1 1;0 0 1 1;0 0 1 1;0 0 1 1;0 0 1 1;0 0 1 1;0 0 1 1;0 0 1 1;0 0 1 1;0 0 1 1;0 0 1 1;0 0 1 1;0 0 1 1;0 0 1 1;0 0 1 1"/>
          <g transform="rotate(0)">
           <g transform="scale(1 1)">
            <g transform="skewX(0) skewY(0)">
             <g opacity="1" transform="translate(-84.552 -136.72)">
              <g>
               <g transform="translate(84.5984 136.72)">
                <g transform="translate(0 0)">
                 <g transform="rotate(0)">
                  <g transform="scale(1 1)">
                   <g transform="skewX(0) skewY(0)">
                    <g opacity="1" transform="translate(-84.5984 -136.72)">
                     <path fill="#3771c8" d="M89.1754 127.019C89.1754 127.019 91.6928 138.457 91.6928 138.457C91.7556 138.742 91.5788 138.908 91.2945 138.84C87.857 138.025 86.2438 139.38 84.6654 143.504C84.561 143.777 84.2622 144.092 83.9927 144.205C83.9927 144.205 77.9634 146.738 77.9634 146.738C77.694 146.851 77.481 146.706 77.4907 146.414C77.9884 131.366 83.906 128.594 88.5711 126.701C88.8419 126.591 89.1126 126.734 89.1754 127.019C89.1754 127.019 89.1754 127.019 89.1754 127.019Z" stroke-width="0.079375" stroke="none"/>
                    </g>
                   </g>
                  </g>
                 </g>
                </g>
               </g>
               <g transform="translate(83.2233 136.72)">
                <g transform="translate(0 0)">
                 <g transform="rotate(0)">
                  <g transform="scale(1 1)">
                   <g transform="skewX(0) skewY(0)">
                    <g opacity="1" transform="translate(-83.2233 -136.72)">
                     <path fill="#5285d0" d="M88.9565 126.719C88.9565 126.719 88.9513 126.712 88.9513 126.712C88.8419 126.654 88.7064 126.646 88.571 126.7C87.9878 126.937 87.385 127.188 86.7757 127.474C86.1665 127.76 85.551 128.083 84.9417 128.463C84.3324 128.844 83.7298 129.283 83.1465 129.802C82.5632 130.321 81.9992 130.922 81.468 131.624C81.2025 131.976 80.9452 132.353 80.6976 132.758C80.4499 133.163 80.2115 133.598 79.9849 134.063C79.7584 134.528 79.5437 135.024 79.3416 135.555C79.1395 136.085 78.9501 136.65 78.7757 137.251C78.6013 137.853 78.4417 138.491 78.2982 139.169C78.1547 139.847 78.0277 140.564 77.9184 141.324C77.8091 142.084 77.7179 142.886 77.6461 143.734C77.5742 144.581 77.5216 145.473 77.4905 146.413C77.4857 146.56 77.5366 146.669 77.6223 146.728C77.708 146.786 77.8286 146.794 77.9633 146.738C77.9633 146.738 83.9924 144.206 83.9924 144.206C84.3478 143.703 84.1822 139.011 86.1393 138.276C87.3102 137.461 88.0174 130.572 88.9565 126.719C88.9565 126.719 88.9565 126.719 88.9565 126.719Z" stroke-width="0.264583" stroke="none"/>
                    </g>
                   </g>
                  </g>
                 </g>
                </g>
               </g>
              </g>
             </g>
            </g>
           </g>
          </g>
         </g>
        </g>
        <g transform="translate(98.8851 93.2963)">
         <g transform="translate(5.16656 0.397428)">
          <g transform="rotate(0)">
           <g transform="scale(1 1)">
            <g transform="skewX(0) skewY(0)">
             <g opacity="1" transform="translate(-98.8851 -93.2963)">
              <g>
               <g transform="translate(98.8849 93.3347)">
                <g transform="translate(0 0)">
                 <g transform="rotate(0)">
                  <g transform="scale(1 1)">
                   <g transform="skewX(0) skewY(0)">
                    <g opacity="1" transform="translate(-98.8849 -93.3347)">
                     <path fill="#373e48" d="M107.453 94.9229C107.34 94.7169 107.233 94.4851 107.118 94.2904C106.795 93.7441 106.462 93.242 106.124 92.7809C105.787 92.3199 105.445 91.8998 105.102 91.5169C104.759 91.1341 104.415 90.7885 104.076 90.4767C103.396 89.8531 102.732 89.3644 102.118 88.9822C101.504 88.6 100.94 88.3243 100.461 88.1264C99.9822 87.9286 99.5879 87.8088 99.3135 87.7384C99.0392 87.6679 98.8846 87.6469 98.8846 87.6469C98.8846 87.6469 98.73 87.6679 98.4557 87.7384C98.1813 87.8088 97.787 87.9286 97.3079 88.1264C96.8289 88.3243 96.2652 88.6 95.6512 88.9822C95.0372 89.3644 94.373 89.8531 93.6937 90.4767C93.354 90.7885 93.0104 91.1341 92.6674 91.5169C92.3245 91.8998 91.9822 92.3199 91.6447 92.7809C91.3072 93.242 90.9749 93.7441 90.6515 94.2904C90.5362 94.4852 90.4299 94.7172 90.3172 94.9234C92.0073 97.4469 95.3004 99.0224 98.8846 99.0224C102.469 99.0225 105.762 97.4467 107.453 94.9229C107.453 94.9229 107.453 94.9229 107.453 94.9229Z" stroke-width="0.079375" stroke="none"/>
                    </g>
                   </g>
                  </g>
                 </g>
                </g>
               </g>
               <g transform="translate(103.206 93.1724)">
                <g transform="translate(0 0)">
                 <g transform="rotate(0)">
                  <g transform="scale(1 1)">
                   <g transform="skewX(0) skewY(0)">
                    <g opacity="1" transform="translate(-103.206 -93.1724)">
                     <path fill="#4a515b" d="M101.731 98.6818C101.759 98.6751 101.787 98.6682 101.815 98.6612C101.86 98.6499 101.905 98.6384 101.95 98.6266C101.994 98.6146 102.039 98.6024 102.084 98.5899C102.128 98.5774 102.173 98.5646 102.217 98.5516C102.262 98.5388 102.306 98.5257 102.35 98.5124C102.394 98.4988 102.438 98.485 102.482 98.471C102.526 98.4571 102.569 98.443 102.613 98.4286C102.657 98.4141 102.7 98.3993 102.744 98.3842C102.787 98.3693 102.83 98.3541 102.874 98.3387C102.917 98.3231 102.959 98.3073 103.002 98.2912C103.045 98.2752 103.088 98.259 103.13 98.2426C103.173 98.2261 103.215 98.2094 103.257 98.1925C103.299 98.1755 103.341 98.1583 103.383 98.1408C103.425 98.1233 103.467 98.1056 103.509 98.0876C103.55 98.0697 103.591 98.0516 103.633 98.0333C103.674 98.0148 103.715 97.996 103.756 97.977C103.796 97.9581 103.837 97.939 103.878 97.9196C103.918 97.9002 103.959 97.8806 103.999 97.8607C104.039 97.841 104.079 97.821 104.119 97.8008C104.159 97.7803 104.198 97.7597 104.238 97.7388C104.277 97.718 104.317 97.697 104.356 97.6757C104.395 97.6546 104.433 97.6332 104.472 97.6116C104.51 97.5898 104.549 97.5678 104.587 97.5455C104.625 97.5235 104.663 97.5013 104.701 97.4788C104.739 97.4561 104.777 97.4332 104.814 97.4101C104.852 97.387 104.889 97.3638 104.926 97.3403C104.963 97.3169 105 97.2933 105.036 97.2695C105.073 97.2456 105.109 97.2215 105.145 97.1972C105.181 97.1729 105.217 97.1485 105.253 97.1238C105.289 97.099 105.324 97.074 105.36 97.0489C105.395 97.0237 105.43 96.9984 105.465 96.9729C105.499 96.9473 105.534 96.9214 105.568 96.8954C105.602 96.8696 105.636 96.8436 105.67 96.8174C105.704 96.791 105.738 96.7645 105.771 96.7378C105.804 96.7109 105.837 96.6839 105.87 96.6567C105.903 96.6296 105.936 96.6024 105.968 96.575C106 96.5475 106.032 96.5197 106.064 96.4918C106.096 96.4639 106.128 96.4358 106.159 96.4076C106.19 96.3793 106.221 96.3509 106.252 96.3223C106.283 96.2937 106.313 96.265 106.344 96.236C106.374 96.2071 106.404 96.178 106.433 96.1487C106.463 96.1194 106.493 96.0899 106.522 96.0603C106.551 96.0307 106.58 96.0009 106.609 95.9709C106.637 95.9409 106.666 95.9108 106.694 95.8805C106.722 95.8502 106.75 95.8197 106.778 95.789C106.805 95.7583 106.832 95.7275 106.859 95.6965C106.886 95.6655 106.913 95.6343 106.939 95.603C106.966 95.5718 106.992 95.5404 107.018 95.5089C107.044 95.4774 107.069 95.4457 107.094 95.4139C107.12 95.382 107.145 95.3499 107.169 95.3177C107.194 95.2855 107.219 95.2531 107.243 95.2206C107.267 95.1882 107.291 95.1556 107.314 95.1229C107.337 95.0901 107.36 95.0572 107.383 95.0242C107.406 94.9913 107.429 94.9582 107.451 94.925C107.451 94.925 107.453 94.9229 107.453 94.9229C107.34 94.7168 107.234 94.485 107.119 94.2904C106.795 93.7441 106.462 93.2419 106.125 92.7809C105.787 92.3199 105.445 91.8997 105.102 91.5169C104.759 91.134 104.416 90.7885 104.076 90.4766C103.396 89.853 102.732 89.3644 102.118 88.9822C101.504 88.5999 100.941 88.3242 100.462 88.1264C99.9825 87.9286 99.5882 87.8087 99.3139 87.7383C99.0871 87.6801 99.0028 87.6696 98.9594 87.6629C99.9791 91.1911 100.935 94.8336 101.731 98.6818C101.731 98.6818 101.731 98.6818 101.731 98.6818Z" stroke-width="0.264583" stroke="none"/>
                    </g>
                   </g>
                  </g>
                 </g>
                </g>
               </g>
               <g transform="translate(93.0343 92.2753)">
                <g transform="translate(0 0)">
                 <g transform="rotate(0)">
                  <g transform="scale(1 1)">
                   <g transform="skewX(0) skewY(0)">
                    <g opacity="1" transform="translate(-93.0343 -92.2753)">
                     <path fill="#4a515b" d="M95.7515 88.9305C95.7147 88.9529 95.6883 88.9591 95.6512 88.9822C95.0372 89.3644 94.373 89.853 93.6937 90.4767C93.354 90.7885 93.0104 91.1341 92.6674 91.5169C92.3245 91.8998 91.9822 92.3199 91.6447 92.7809C91.3072 93.2419 90.9749 93.7441 90.6515 94.2904C90.5362 94.4852 90.4299 94.7172 90.3172 94.9234C90.3394 94.9566 90.362 94.9897 90.3849 95.0226C90.4078 95.0557 90.4311 95.0886 90.4546 95.1213C90.4781 95.154 90.5019 95.1866 90.5259 95.219C90.5499 95.2515 90.5742 95.2839 90.5988 95.3162C90.6235 95.3484 90.6485 95.3804 90.6737 95.4123C90.6989 95.4441 90.7244 95.4758 90.7502 95.5074C90.7761 95.539 90.8023 95.5706 90.8288 95.6019C90.8288 95.6019 90.8443 95.62 90.8443 95.62C92.1373 93.1157 93.7715 90.8979 95.7514 88.9305C95.7514 88.9305 95.7515 88.9305 95.7515 88.9305Z" stroke-width="0.264583" stroke="none"/>
                    </g>
                   </g>
                  </g>
                 </g>
                </g>
               </g>
               <g transform="translate(105.306 92.5445)">
                <g transform="translate(0 0)">
                 <g transform="rotate(0)">
                  <g transform="scale(1 1)">
                   <g transform="skewX(0) skewY(0)">
                    <g opacity="1" transform="translate(-105.306 -92.5445)">
                     <path fill="#373e48" d="M107.173 95.3125C107.197 95.282 107.22 95.2514 107.243 95.2206C107.267 95.1881 107.291 95.1556 107.314 95.1229C107.337 95.0901 107.361 95.0572 107.383 95.0242C107.406 94.9912 107.429 94.9582 107.451 94.925C107.451 94.925 107.453 94.9229 107.453 94.9229C107.34 94.7168 107.234 94.485 107.119 94.2904C106.795 93.7441 106.462 93.2419 106.125 92.7809C105.787 92.3199 105.445 91.8997 105.102 91.5169C104.759 91.134 104.416 90.7884 104.076 90.4766C103.758 90.1845 103.467 90.0122 103.159 89.7764C104.767 91.4057 106.116 93.2395 107.173 95.3125C107.173 95.3125 107.173 95.3125 107.173 95.3125Z" stroke-width="0.264583" stroke="none"/>
                    </g>
                   </g>
                  </g>
                 </g>
                </g>
               </g>
              </g>
             </g>
            </g>
           </g>
          </g>
         </g>
        </g>
        <g transform="translate(107.692 133.428)">
         <g transform="translate(5.16656 0.397428)">
          <g transform="rotate(0)">
           <g>
            <animateTransform attributeName="transform" calcMode="spline" repeatCount="indefinite" type="scale" keyTimes="0;0;0.030303;0.121212;0.151515;0.212121;0.242424;0.318182;0.348485;0.393939;0.454545;0.530303;0.590909;0.69697;0.757576;0.848485;0.909091;1" values="0.902136 1;0.902136 1;1 1;0.902136 1;1 1;0.902136 1;1 1;0.902136 1;1 1;0.902136 1;1 1;0.902136 1;1 1;0.902136 1;1 1;0.902136 1;1 1;1 1" dur="5.5s" keySplines="0 0 1 1;0 0 1 1;0 0 1 1;0 0 1 1;0 0 1 1;0 0 1 1;0 0 1 1;0 0 1 1;0 0 1 1;0 0 1 1;0 0 1 1;0 0 1 1;0 0 1 1;0 0 1 1;0 0 1 1;0 0 1 1;0 0 1 1"/>
            <g>
             <animateTransform attributeName="transform" calcMode="spline" repeatCount="indefinite" type="scale" keyTimes="0;0;0.030303;0.121212;0.151515;0.212121;0.242424;0.318182;0.348485;0.393939;0.454545;0.530303;0.590909;0.69697;0.757576;0.848485;0.909091;1" values="1 0.902136;1 0.902136;1 1;1 0.902136;1 1;1 0.902136;1 1;1 0.902136;1 1;1 0.902136;1 1;1 0.902136;1 1;1 0.902136;1 1;1 0.902136;1 1;1 1" dur="5.5s" keySplines="0 0 1 1;0 0 1 1;0 0 1 1;0 0 1 1;0 0 1 1;0 0 1 1;0 0 1 1;0 0 1 1;0 0 1 1;0 0 1 1;0 0 1 1;0 0 1 1;0 0 1 1;0 0 1 1;0 0 1 1;0 0 1 1;0 0 1 1"/>
             <g transform="skewX(0) skewY(0)">
              <g opacity="1" transform="translate(-107.692 -133.428)">
               <g>
                <g transform="translate(113.171 136.72)">
                 <g transform="translate(0 0)">
                  <g transform="rotate(0)">
                   <g transform="scale(1 1)">
                    <g transform="skewX(0) skewY(0)">
                     <g opacity="1" transform="translate(-113.171 -136.72)">
                      <path fill="#3771c8" d="M108.594 127.019C108.594 127.019 106.077 138.457 106.077 138.457C106.014 138.742 106.191 138.908 106.475 138.84C109.913 138.025 111.526 139.38 113.104 143.504C113.209 143.777 113.507 144.092 113.777 144.205C113.777 144.205 119.806 146.738 119.806 146.738C120.076 146.851 120.289 146.706 120.279 146.414C119.781 131.366 113.864 128.594 109.198 126.701C108.928 126.591 108.657 126.734 108.594 127.019C108.594 127.019 108.594 127.019 108.594 127.019Z" stroke-width="0.079375" stroke="none"/>
                     </g>
                    </g>
                   </g>
                  </g>
                 </g>
                </g>
                <g transform="translate(114.446 136.72)">
                 <g transform="translate(0 0)">
                  <g transform="rotate(0)">
                   <g transform="scale(1 1)">
                    <g transform="skewX(0) skewY(0)">
                     <g opacity="1" transform="translate(-114.446 -136.72)">
                      <path fill="#5285d0" d="M115.913 145.102C115.913 145.102 119.806 146.737 119.806 146.737C119.941 146.794 120.062 146.786 120.147 146.727C120.233 146.669 120.284 146.559 120.279 146.413C120.248 145.473 120.195 144.581 120.124 143.733C120.052 142.886 119.961 142.083 119.851 141.324C119.742 140.564 119.615 139.846 119.471 139.169C119.328 138.491 119.168 137.852 118.993 137.251C118.819 136.649 118.63 136.085 118.428 135.554C118.226 135.024 118.011 134.528 117.784 134.062C117.558 133.597 117.32 133.163 117.072 132.758C116.824 132.352 116.567 131.975 116.302 131.624C115.77 130.921 115.206 130.321 114.623 129.802C114.04 129.282 113.437 128.843 112.828 128.463C112.219 128.082 111.603 127.76 110.993 127.474C110.384 127.187 109.782 126.937 109.199 126.7C109.063 126.645 108.928 126.654 108.818 126.712C108.718 126.764 108.65 126.868 108.613 126.993C112.459 132.266 115.993 137.708 115.913 145.102C115.913 145.102 115.913 145.102 115.913 145.102Z" stroke-width="0.264583" stroke="none"/>
                     </g>
                    </g>
                   </g>
                  </g>
                 </g>
                </g>
                <g transform="translate(106.785 132.555)">
                 <g>
                  <animateTransform attributeName="transform" calcMode="spline" repeatCount="indefinite" type="translate" keyTimes="0;0;0.030303;0.121212;0.151515;0.212121;0.242424;0.318182;0.348485;1" values="0 0;0 0;-1.94368 0;0 0;-1.94368 0;0 0;-1.94368 0;0 0;-1.94368 0;-1.94368 0" dur="5.5s" keySplines="0 0 1 1;0 0 1 1;0 0 1 1;0 0 1 1;0 0 1 1;0 0 1 1;0 0 1 1;0 0 1 1;0 0 1 1"/>
                  <g>
                   <animateTransform attributeName="transform" calcMode="spline" repeatCount="indefinite" type="translate" keyTimes="0;0;0.030303;0.121212;0.151515;0.212121;0.242424;0.318182;0.348485;1" values="0 0;0 0;0 -0.138834;0 0;0 -0.138834;0 0;0 -0.138834;0 0;0 -0.138834;0 -0.138834" dur="5.5s" keySplines="0 0 1 1;0 0 1 1;0 0 1 1;0 0 1 1;0 0 1 1;0 0 1 1;0 0 1 1;0 0 1 1;0 0 1 1"/>
                   <g transform="rotate(0)">
                    <g transform="scale(1 1)">
                     <g transform="skewX(0) skewY(0)">
                      <g opacity="1" transform="translate(-106.785 -132.555)">
                       <path fill="#3771c8" d="M106.528 123.134C106.528 123.134 103.762 138.292 103.762 138.292C103.699 138.577 105.752 140.392 107.111 139.911C109.227 132.659 109.825 129.784 110.521 122.071C109.537 119.948 106.528 123.134 106.528 123.134Z" stroke-width="0.079375" stroke="none"/>
                      </g>
                     </g>
                    </g>
                   </g>
                  </g>
                 </g>
                </g>
               </g>
              </g>
             </g>
            </g>
           </g>
          </g>
         </g>
        </g>
       </g>
      </g>
     </g>
    </g>
   </g>
  </g>
 </g>
 <defs/>
</svg>
